<svg x="0" y="0" width="607" height="337" viewBox="0 0 607 337" version="1.1" xmlns="http://www.w3.org/2000/svg" style="display: block;margin-left: auto;margin-right: auto;">
<defs>
<clipPath id="c_1"><path d="M0,0H607V337H0Z"/></clipPath>
<clipPath id="c0"><path d="M.1 346.8V.1h640V346.8Z"/></clipPath>
<clipPath id="c1"><path d="M-28.5 362.1V-14.7H668.4V362.1Z"/></clipPath>
<clipPath id="c2"><path d="M453.7 160V136.1h24V160Z"/></clipPath>
<clipPath id="c3"><path d="M286.5 88V64h24V88Z"/></clipPath>
<clipPath id="c4"><path d="M564.9 305.1v-24h24v24Z"/></clipPath>

<style>
text { white-space: pre; }
path, image { pointer-events: none; }
text::-moz-selection {
	color: transparent;
	background: rgba(0, 106, 173, 0.4);
}
text::selection {
	color: transparent;
	background: rgba(0, 106, 173, 0.4);
}

.s0{font-size:12.08px;font-family:w_41;fill:TRANSPARENT;}
.s1{font-size:16.11px;font-family:w_41;fill:TRANSPARENT;}
.s2{font-size:9.06px;font-family:w_41;fill:TRANSPARENT;}

.g0{fill:#FFF;}
.g1{fill:#000;}
.g2{fill:#F5F5F5;}
.g3{fill:#666;}
.g4{fill:none;stroke:#666;stroke-width:1.006;stroke-miterlimit:10;}
.g5{fill:#D5E8D4;}
.g6{fill:none;stroke:#82B366;stroke-width:1.006;stroke-miterlimit:10;}
.g7{fill:#FFE6CC;}
.g8{fill:none;stroke:#D79B00;stroke-width:1.006;stroke-miterlimit:10;}
.g9{fill:none;stroke:#000;stroke-width:0.152;stroke-miterlimit:10;stroke-opacity:0.03;}
.ga{fill:none;stroke:#000;stroke-width:0.152;stroke-miterlimit:10;stroke-opacity:0.02;}
.gb{fill:#DAE8FC;}
.gc{fill:none;stroke:#6C8EBF;stroke-width:1.006;stroke-miterlimit:10;}
.gd{fill:#333C4F;}
.ge{fill:none;stroke:#000;stroke-width:1.006;stroke-miterlimit:10;}
.gf{fill:#272636;}
.gg{fill:#CDEB8B;}
.gh{fill:none;stroke:#36393D;stroke-width:1.006;stroke-miterlimit:10;}
.gi{fill:#F8CECC;}
.gj{fill:none;stroke:#B85450;stroke-width:1.006;stroke-miterlimit:10;}
.gk{fill:#FC9;}
.gl{fill:#CCE5FF;}

</style>

<path id="f0_1j" transform="scale(0.001 -0.001)" d="M491-41c0 0-137 0-250 51c0 0-139 64-141 176c0 0-1 32 21 51c0 0 23 20 55 20c0 0 36 0 64-42c0 0 38-56 68-76c0 0 63-42 184-42c0 0 115 0 214 50c0 0 126 64 126 177c0 0 0 94-106 149c0 0-90 46-223 50c0 0-118 5-200 52c0 0-106 60-106 173c0 0 0 133 151 242c0 0 144 104 297 104c0 0 72 0 163-25c0 0 121-32 121-82c0 0 0-66-67-66c0 0-30 0-104 16c0 0-71 15-113 15c-1 0-2 0-3 0c0 0-116-1-197-57c0 0-84-58-84-140c0 0 0-62 110-87c0 0 41-10 159-18c0 0 171-12 267-107c0 0 88-86 88-211c0 0 0-177-164-282c0 0-142-91-330-91Z"/>
<path id="f0_2g" transform="scale(0.001 -0.001)" d="M365-47c0 0-30 0-52 19c0 0-22 20-22 48c0 0 0 28 2 85c0 0 2 57 2 85L281 626c0 0-55 2-166 12c0 0-66 9-66 74c0 0 0 33 20 54c0 0 20 22 51 22l157-13c0 0 0 38-4 102c0 0-3 64-3 93c0 0 0 31 22 52c0 0 21 20 53 20c0 0 67 0 78-110c0 0 3-27 3-66l-2-43l-1-47c0 0 93 12 106 12c0 0 77 0 101-7c0 0 46-15 46-71c0 0 0-33-21-54c0 0-20-22-52-22c0 0-16 0-37 2c0 0-22 1-37 1c0 0-17 0-102-11l14-440l1-33l1-38c0 0 3-162-78-162Z"/>
<path id="f0_1x" transform="scale(0.001 -0.001)" d="M358 91c0 0 72 0 122 26c0 0 27 14 75 57c0 0-23 197-23 296c0 0 0 32 4 70c0 0 4 37 12 80c0 0-28 14-47 21c0 0-20 6-32 6c0 0-116 0-200-94c0 0-84-94-84-217c0 0 0-123 44-184c0 0 43-61 129-61ZM686-48c0 0-14 0-51 33c0 0-34 29-50 53c0 0-72-38-126-57c0 0-54-20-91-20c0 0-174 0-254 97c0 0-75 93-75 284c0 0 0 181 124 309c0 0 124 128 296 128c0 0 65 0 145-33c0 0 102-42 102-101c0 0 0-20-15-36c0 0-8-28-12-93c0 0-4-65-5-166c0 0 0-93 13-147c0 0 7-33 47-131c0 0 5-13 17-40l4-12c0 0 0-29-20-48c0 0-21-20-49-20Z"/>
<path id="f0_25" transform="scale(0.001 -0.001)" d="M211-3c0 0-32 0-53 20c0 0-20 21-20 54c0 0 0 44-3 134c0 0-2 89-2 133c0 0 0 71 7 175c0 0 8 105 8 175c0 0 0 34 20 55c0 0 21 21 53 21c0 0 32 0 53-21c0 0 20-21 20-55c0 0 0-70-7-175c0 0-7-104-7-175c0 0 0-44 2-133c0 0 2-90 2-134c0 0 0-33-20-54c0 0-20-20-53-20Zm34 948c0 0-35 0-62 25c0 0-26 25-26 61c0 0 0 36 26 61c0 0 27 26 62 26c0 0 36 0 62-26c0 0 25-25 25-61c0 0 0-36-25-61c0 0-26-25-62-25Z"/>
<path id="f0_1z" transform="scale(0.001 -0.001)" d="M441-46c0 0-153 0-255 92c0 0-107 97-107 255c0 0 0 152 101 313c0 0 112 179 252 179c0 0 73 0 163-34c0 0 115-44 115-108c0 0 0-28-19-50c0 0-19-22-46-22c0 0-22 0-38 13c0 0-16 13-31 26c0 0-44 35-144 35c0 0-77 0-151-136c0 0-68-125-68-216c0 0 0-98 67-155c0 0 63-53 161-53c0 0 45 0 96 24l86 46c0 0 23 12 32 12c0 0 28 0 48-22c0 0 20-22 20-50c0 0 0-55-115-104c0 0-100-45-167-45Z"/>
<path id="f0_1d" transform="scale(0.001 -0.001)" d="M1212-62c0 0-40 0-66 42c0 0-23 35-41 119l-26 129c0 0-31 119-97 526L832 304L788 163c0 0-27-85-56-138c0 0-31-56-84-56c0 0-44 0-69 47c0 0-17 31-30 79l-22 83c0 0-75 264-132 564L368 609L271 215c0 0-5-69-37-205c0 0-22-58-74-58c0 0-36 0-58 26c0 0-18 22-18 55c0 0 0 124 51 306l82 300l43 235c0 0 33 165 70 216c0 0 29 43 73 43c0 0 49 0 73-55c0 0 29-66 62-271c0 0 40-245 123-531c0 0 111 287 192 598l22 109c0 0 13 66 35 106c0 0 29 55 80 55c0 0 64 0 98-123c0 0 11-43 29-177c0 0 44-337 109-575l37-129c0 0 28-103 28-127c0 0 0-31-24-53c0 0-24-22-55-22Z"/>
<path id="f0_21" transform="scale(0.001 -0.001)" d="M191 363L420 472c0 0 135 65 192 114c0 0-64 59-180 59c0 0-91 0-151-70c0 0-60-71-90-212ZM452-33c0 0-168 0-272 83c0 0-114 93-114 261c0 0 0 194 93 325c0 0 103 143 273 143c0 0 124 0 202-41c0 0 96-52 96-158c0 0 0-75-84-136c0 0-37-27-158-83L203 226c0 0 42-62 104-94c0 0 63-31 145-31c0 0 52 0 121 19c0 0 88 25 113 65c0 0 26 40 55 40c0 0 26 0 46-20c0 0 21-20 21-46c0 0 0-83-134-142c0 0-114-50-222-50Z"/>
<path id="f0_29" transform="scale(0.001 -0.001)" d="M617-91c0 0-32 0-53 21c0 0-20 22-20 54c0 0 0 89-18 265c0 0-18 177-18 267c0 0 0 79-23 123c0 0-52-24-106-78l-88-98c0 0-12-18-38-47c0 0 0-45-8-132c0 0-8-87-8-129c0 0 0-22 7-63c0 0 7-40 7-58c0 0 0-30-23-50c0 0-23-21-53-21c0 0-85 0-85 191c0 0 0 44 8 133c0 0 9 89 9 134c0 0 0 39-7 118c0 0-8 80-8 120c0 0 0 169 77 169c0 0 29 0 53-25c0 0 24-26 24-56c0 0 0-14-3-44c0 0-4-30-4-45l2-79c0 0 38 80 114 145c0 0 75 64 128 64c0 0 117 0 161-116c0 0 41 55 98 82c0 0 56 27 129 27c0 0 125 0 170-134c0 0 9-27 31-210c0 0 21-128 53-427c0 0 3-29-20-50c0 0-22-21-54-21c0 0-62 0-72 64c0 0-13 82-27 232L927 466c0 0-7 51-25 100c0 0-25 68-55 68c0 0-28 0-103-47c0 0-71-44-94-70c0 0 0-70 4-140l22-199c0 0 14-118 14-194c0 0 0-32-20-54c0 0-21-21-53-21Z"/>
<path id="f0_2b" transform="scale(0.001 -0.001)" d="M384 107c0 0 77 0 133 56c0 0 64 63 67 170c0 0 11 288-156 289c-3 0-110-1-171-105c0 0-48-84-48-192c0 0 0-108 59-168c0 0 49-50 116-50Zm0-150c0 0-125 0-216 91c0 0-100 103-106 277c0 0-4 169 85 297c0 0 105 151 291 151c0 0 149 0 226-136c0 0 62-110 59-266c0 0-2-165-86-282c0 0-96-132-253-132Z"/>
<path id="f0_2e" transform="scale(0.001 -0.001)" d="M169-49c0 0-65 0-65 74V549c0 0 0 25 2 74c0 0 2 49 2 74c0 0 0 75 65 75c0 0 73 0 73-123c0 0 144 138 318 138c0 0 61 0 91-45c0 0 29-46 29-138c0 0 0-39 0-52c0 0-5-93-75-93c0 0-64 0-64 73c0 0 0 15-3 53l-2 62c0 0-118-14-188-66c0 0-67-49-110-146l2-409c0 0 0-75-75-75Z"/>
<path id="f0_2l" transform="scale(0.001 -0.001)" d="M233-431c0 0-31 0-54 20c0 0-23 21-23 52c0 0 1 74 162 430L51 586L17 640c0 0-19 34-19 57c0 0 0 31 23 54c0 0 23 23 52 23c0 0 34 0 53-26c0 0 127-176 272-502L510 504c0 0 59 134 114 230c0 0 23 41 62 41c0 0 31 0 54-21c0 0 24-22 24-52c0 0 0-16-9-37L496 107c0 0-95-202-146-340L301-377c0 0-20-54-68-54Z"/>
<path id="f0_1b" transform="scale(0.001 -0.001)" d="M248-81c0 0-42 0-68 37c0 0-20 31-20 66c0 0 0 174 10 522c0 0 10 347 10 521c0 0 0 32 21 55c0 0 22 22 53 22c0 0 32 0 53-22c0 0 22-23 22-55c0 0 0-72-9-225c0 0-9-148-8-226c0 0 100 95 226 238l214 248c0 0 26 29 57 29c0 0 30 0 53-22c0 0 23-22 23-55c0 0 0-49-193-262c0 0-133-146-275-285c0 0 90-94 281-270l78-66c0 0 43-32 92-49c0 0 59-19 59-74c0 0 0-25-15-47c0 0-20-28-52-28c0 0-114 0-324 198L313 393V-7c0 0 0-74-65-74Z"/>
<path id="f0_1m" transform="scale(0.001 -0.001)" d="M492-59c0 0-57 0-80 58c0 0-91 226-201 652L152 856c0 0-44 155-44 203c0 0 0 33 24 55c0 0 22 20 52 20c0 0 57 0 73-61l28-130l71-253c0 0 72-278 140-479l4 12L700 765l64 183c0 0 42 110 90 167c0 0 25 30 58 30c0 0 30 0 54-23c0 0 23-23 23-55c0 0 0-22-15-45c0 0-46-69-75-145L842 714L641 171c0 0-35-95-82-185c0 0-24-45-67-45Z"/>
<path id="f0_l" transform="scale(0.001 -0.001)" d="M376 0H229c0 0-53 0-74 6c0 0-38 14-38 57c0 0 0 75 118 75l36-1l30-1c0 0 0 36-6 106c0 0-7 70-7 105c0 0 0 95 17 288c0 0 16 191 16 289c0 0-100-77-127-77c0 0-30 0-52 22c0 0-22 22-22 52c0 0 0 35 64 84c0 0 41 29 114 91c0 0 66 67 125 67c0 0 50 0 50-58c0 0 0-17-4-51c0 0-5-34-5-51c0 0 0-25 3-75c0 0 2-50 2-74c0 0 0-85-17-254c0 0-18-168-18-253c0 0 0-43 6-105c0 0 6-62 7-101l78 1c0 0 31 0 52-20c0 0 20-21 20-51c0 0 0-32-20-52c0 0-21-19-52-19Z"/>
<path id="f0_m" transform="scale(0.001 -0.001)" d="M246-1c0 0-8 0-24 2c0 0-15 3-24 3c0 0-51 0-67 50c0 0-9 26-9 90c0 0 0 173 95 279c0 0 43 49 234 179c0 0 107 74 143 115c0 0 64 71 64 168c0 0 0 47-62 85c0 0-55 33-107 33c0 0-69 0-131-39L252 880c0 0-32-25-52-25c0 0-77 0-77 61c0 0 0 35 29 60c0 0 87 82 151 119c0 0 90 51 186 51c0 0 121 0 215-66c0 0 106-74 106-189c0 0 0-76-21-140c0 0-22-65-66-118c0 0-56-67-189-150c0 0-141-88-185-133c0 0-82-86-81-208l154 14c0 0 158 9 226 9c0 0 56 0 107-19c0 0 67-26 67-72c0 0 0-30-20-52c0 0-20-22-50-22c0 0-19 0-53 10c0 0-34 12-52 12c0 0-38 0-114-5c0 0-76-4-115-4c0 0-29 0-86-8c0 0-57-6-86-6Z"/>
<path id="f0_2a" transform="scale(0.001 -0.001)" d="M676-52c0 0-64 0-72 69L583 181c0 0-10 87-10 163c0 0 0 21 2 71c0 0 3 50 3 71c0 0 0 161-60 161c0 0-83 0-159-99c0 0-69-90-107-229c0 0-2-29-7-73c0 0-5-37-5-72c0 0 0-23 5-67c0 0 4-45 4-68c0 0 0-33-20-53c0 0-21-21-53-21c0 0-32 0-52 21c0 0-21 20-21 53c0 0 0 23-4 68c0 0-5 44-5 67c0 0 0 77 11 213c0 0 10 136 10 213c0 0 0 24-2 71c0 0-3 47-3 71c0 0 0 32 21 53c0 0 22 20 53 20c0 0 69 0 76-97l2-87c0 0 125 167 257 167c0 0 119 0 166-105c0 0 32-70 35-208V410l-1-70c0 0 0-61 16-160c0 0 16-98 16-159c0 0 0-32-21-52c0 0-22-21-54-21Z"/>
<path id="f0_24" transform="scale(0.001 -0.001)" d="M728-45c0 0-53 0-69 56c0 0-17 61-31 173c0 0-13 109-13 178c0 0 0 19 2 59c0 0 2 39 2 59c0 0 0 140-71 140c0 0-95 0-170-86c0 0-38-44-105-167c0 0 0-285-23-337c0 0-21-46-65-46c0 0-30 0-54 20c0 0-23 21-23 51c0 0 0 10 7 33c0 0 6 18 8 109l2 110l3 548c0 0 5 93 5 125c0 0 0 38-7 72c0 0-7 34-7 70c0 0 0 32 21 52c0 0 22 21 53 21c0 0 61 0 72-66c0 0 12-72 12-130c0 0 0-79-6-164c0 0-4-81-3-163l1-66c0 0 61 82 131 123c0 0 69 41 148 41c0 0 124 0 170-81c0 0 33-57 37-191l6-142l15-155c0 0 11-87 25-154c0 0 3-12 3-21c0 0 0-30-22-50c0 0-23-21-54-21Z"/>
<path id="f0_2h" transform="scale(0.001 -0.001)" d="M644-59c0 0-58 0-73 70c0 0-94-47-215-47c0 0-98 0-162 42c0 0-71 48-84 139c0 0-28 198-28 352c0 0 0 103 21 233c0 0 11 65 71 65c0 0 32 0 54-21c0 0 22-20 22-52c0 0 0-34-11-110c0 0-11-75-11-114c0 0 0-125 8-214c0 0 9-88 25-142c0 0 24-13 48-21c0 0 24-7 47-7c0 0 100 0 212 32l-1 152l-2 145c0 0 0 161 14 279c0 0 9 69 72 69c0 0 32 0 54-21c0 0 22-21 20-52L712 436c0 0 0-54 1-161c0 0 1-108 1-162c0 0 0-16 2-50c0 0 2-33 2-50c0 0 0-31-21-51c0 0-22-21-53-21Z"/>
<path id="f0_27" transform="scale(0.001 -0.001)" d="M725-30c0 0-41 0-63 43c0 0-39 75-117 178L413 371c0 0-43-35-134-97c0 0-8-115-8-225c0 0 0-34-20-54c0 0-21-20-53-20c0 0-76 0-76 100c0 0 0 62 8 185c0 0 9 124 9 186c0 0 0 113 4 259c0 0 3 146 3 257c0 0 0 34-3 79c0 0-4 46-4 80c0 0 0 33 21 54c0 0 20 21 53 21c0 0 32 0 52-21c0 0 21-21 21-54c0 0 0-35 3-81c0 0 4-47 4-81l-5-240c0 0-4-130-2-260c0 0 101 78 195 170L645 798c0 0 25 26 53 26c0 0 29 0 52-23c0 0 24-23 24-54c0 0 0-25-22-50c0 0-92-107-226-230L689 245c0 0 114-156 114-202c0 0 0-30-23-51c0 0-24-22-55-22Z"/>
<path id="f0_13" transform="scale(0.001 -0.001)" d="M431-17c0 0-154 0-261 118c0 0-103 115-103 272c0 0 0 253 212 518c0 0 177 222 356 222c0 0 37 0 66-4c0 0 29-3 52-10c0 0 26 37 67 37c0 0 52 0 65-67c0 0 12-61 12-148c0 0 0-31-16-54c0 0-20-29-58-29c0 0-47 0-71 56c0 0-21 48-39 58c0 0-16 8-78 8c0 0-108 0-239-166c0 0-179-222-179-422c0 0 0-96 62-165c0 0 63-72 153-72c0 0 76 0 154 40c0 0 43 22 133 88c0 0 42 31 64 31c0 0 32 0 54-24c0 0 21-24 21-54c0 0 0-34-28-59c0 0-197-174-399-174Z"/>
<path id="f0_2c" transform="scale(0.001 -0.001)" d="M420 123c0 0 94 0 143 70c0 0 43 60 43 156c0 0 0 136-34 203c0 0-33 68-100 68c0 0-69 0-124-31c0 0-40-21-100-79c0 0 10-169 10-355c0 0 81-32 162-32ZM182-432c0 0-32 0-53 21c0 0-20 21-20 53l2 299V237c0 0-2 163-11 298L88 686c0 0 0 53 20 89c0 0 22 44 65 44c0 0 29 0 48-20c0 0 20-21 20-50c0 0 0-7-2-25c0 0-4-23-6-43c0 0 65 45 124 67c0 0 60 22 115 22c0 0 153 0 224-136c0 0 56-108 56-284c0 0 0-162-86-266c0 0-92-109-245-109c0 0-75 0-165 23l-1-356c0 0 0-32-21-53c0 0-20-21-52-21Z"/>
<path id="f0_2f" transform="scale(0.001 -0.001)" d="M333-44c0 0-98 0-187 33c0 0-114 41-114 115c0 0 0 30 23 53c0 0 23 22 53 22c0 0 23 0 60-36c0 0 18-17 80-28c0 0 50-9 84-9c0 0 63 0 110 15c0 0 70 21 70 68c0 0 0 102-142 138l-77 17c0 0-100 21-141 50c0 0-61 42-61 126c0 0 0 156 148 223c0 0 44 20 142 48c0 0 99 28 141 47c0 0 31 14 67 14c0 0 32 0 53-21c0 0 20-21 20-55c0 0 0-21 10-63c0 0 9-42 9-64c0 0 0-33-21-54c0 0-20-21-53-21c0 0-41 0-57 28c0 0-11 19-20 81c0 0-56-15-172-53c0 0-119-48-120-118c0 0 22-8 44-12c0 0 171-30 255-84c0 0 121-78 121-227c0 0 0-121-105-183c0 0-87-50-220-50Z"/>
<path id="f0_1c" transform="scale(0.001 -0.001)" d="M228-68c0 0-75 0-108 23c0 0-45 31-45 114L90 315c0 0 20 342 20 758c0 0 0 32 21 54c0 0 21 23 53 23c0 0 32 0 54-23c0 0 21-22 21-54c0 0 0-421-20-767L229 193c0 0-6-62-4-110h1c17 0 207 2 490 91c0 0 13 4 24 4c0 0 32 0 54-25c0 0 18-23 18-53c0 0 0-47-48-70c0 0-84-38-264-69c0 0-167-29-272-29Z"/>
<path id="f0_23" transform="scale(0.001 -0.001)" d="M354 106c0 0 75 0 146 85c0 0 64 78 73 155c0 0 16 80 34 253c0 0-30 23-62 34c0 0-32 11-67 11c0 0-141 0-219-97c0 0-69-88-69-224c0 0 0-108 41-163c0 0 41-54 123-54ZM304-419c0 0-99 0-167 13c0 0-94 19-94 78c0 0 0 66 65 66c0 0 27 0 90-13c0 0 56-12 126-12c4 0 8 0 13 1c0 0 143 2 197 138c0 0 36 91 38 278c0 0-40-74-95-111c0 0-56-37-128-37c0 0-134 0-219 92c0 0-85 92-85 239c0 0 0 201 116 324c0 0 119 127 325 127c0 0 69 0 116-18c0 0 47-18 71-54c0 0 80-2 80-89c0 0 0-53-15-141c0 0-17-103-20-141L701 71c0 0-5-148-31-243c0 0-33-121-107-178c0 0-90-69-259-69Z"/>
<path id="f0_1n" transform="scale(0.001 -0.001)" d="M1062-71c0 0-34 0-60 19c0 0-30 23-30 55c0 0-34 90-43 147c0 0-9 57-59 321c0 0-38 201-51 322c0 0-66-246-143-416c0 0-88-198-114-310c0 0 9-17 9-34c0 0 0-33-30-54c0 0-27-20-61-20c0 0-101 0-101 89l-23 95L275 509c0 0-49 185-166 530c0 0-5 16-5 30c0 0 0 69 78 69c0 0 49 0 75-53c0 0 13-27 54-154c0 0 44-135 88-325l73-330c0 0 80 185 159 450c0 0 48 162 74 225c0 0 67 165 130 165c0 0 53 0 74-53c0 0 27-64 55-306c0 0 15-122 51-294l64-293c0 0 100 240 249 650c0 0 9 22 38 141c0 0 21 87 52 135c0 0 27 41 70 41c0 0 76 0 76-74c0 0 0-13-24-75l-30-80l-41-133L1248 236c0 0-31-88-105-256c0 0-27-51-81-51Z"/>
<path id="f0_1l" transform="scale(0.001 -0.001)" d="M590-28c0 0-232 0-346 132c0 0-93 108-117 318c0 0-11 95-11 378c0 0 0 104 5 168c0 0 4 68 13 95c0 0 19 55 67 55c0 0 69 0 69-126V554c0 0 0-452 316-452c0 0 298 0 298 761c0 0 0 28 0 73c0 0-1 44-1 59c0 0 0 47 17 82c0 0 20 45 61 45c0 0 75 0 75-103c0 0 0-30 1-92c0 0 0-62 0-93c0 0 0-862-447-862Z"/>
<path id="f0_28" transform="scale(0.001 -0.001)" d="M202-31c0 0-73 0-73 75c0 0 0 90 9 271c0 0 8 181 8 271c0 0 0 118 4 270c0 0 4 152 4 270c0 0 0 75 73 75c0 0 73 0 73-75c0 0 0-118-4-270c0 0-3-152-3-270L282 216c0 0 0-59-6-174c0 0-8-73-74-73Z"/>
<path id="f0_20" transform="scale(0.001 -0.001)" d="M437 107c0 0 63 0 106 23c0 0 25 13 83 62c0 0 11 9 21 23l-2 129l1 86l1 89c0 0-28 60-75 90L460 639c0 0-126 0-188-74c0 0-63-74-63-223c0 0 0-97 68-166c0 0 69-69 160-69Zm0-140c0 0-154 0-256 102c0 0-104 105-104 270c0 0 0 199 106 319c0 0 105 120 273 120c0 0 87 0 134-27l70-51c0 0 10 314 25 423c0 0 9 66 68 66c0 0 68 0 68-72c0 0 0-104-30-458c0 0-9-110-9-220c0 0 0-248 23-375c0 0 2-10 2-17c0 0 0-30-21-48c0 0-21-19-49-19c0 0-47 0-68 66c0 0-54-40-112-59c0 0-57-20-120-20Z"/>
<path id="f0_1e" transform="scale(0.001 -0.001)" d="M186-58c0 0-42 0-66 26c0 0-21 24-21 55c0 0 0 31 5 94c0 0 4 64 4 95c0 0 0 46 3 138c0 0 3 92 3 139c0 0 0 49-2 148c0 0-2 100-2 149c0 0 0 47-9 140c0 0-9 93-9 140c0 0 0 34 29 62c0 0 30 29 67 29c0 0 40 0 98-87c0 0 186-278 335-462c0 0 176-219 387-418c0 0 2 32 0 95l-3 94c0 0 0 327-25 521c0 0-3 19-20 78c0 0-15 51-15 79c0 0 0 87 80 87c0 0 130 0 130-484c0 0 0-83-3-247c0 0-2-165-2-248c0 0 0-35-12-119c0 0-12-74-80-74c0 0-41 0-98 52c0 0-303 288-695 829l-4-169l-2-170c0 0 0-62 2-186c0 0 3-124 3-186c0 0 0-200-78-200Z"/>
<path id="f0_2k" transform="scale(0.001 -0.001)" d="M737-32c0 0-28 0-51 27c0 0-69 79-243 307L298 152c0 0-44-40-128-123c0 0-24-27-52-27c0 0-28 0-50 22c0 0-22 23-22 52c0 0 0 23 18 47c0 0 21 27 65 66c0 0 52 46 68 63L356 418L258 559c0 0-59 84-103 123c0 0-28 26-28 55c0 0 0 30 21 53c0 0 21 24 49 24c0 0 44 0 133-115L459 520L605 655c0 0 91 86 123 134c0 0 24 35 57 35c0 0 29 0 52-21c0 0 22-22 22-50c0 0 0-41-69-113L681 538L548 406L791 88c0 0 19-24 19-47c0 0 0-29-22-51c0 0-22-22-51-22Z"/>
<path id="f0_1i" transform="scale(0.001 -0.001)" d="M308 508c0 0 190 0 285 51c0 0 42 23 78 60c0 0 39 42 39 71c0 0 0 104-118 193c0 0-108 82-227 95l-111 9l8-91c0 0 5-55 5-90c0 0 0-59-9-148L242 510c0 0 10 0 32-1c0 0 22-1 34-1ZM173-24c0 0-32 0-54 22c0 0-21 21-21 53c0 0 0 59-5 176c0 0-6 117-6 176c0 0 0 68 15 204c0 0 16 136 16 203c0 0 0 38-8 113c0 0-7 75-7 113c0 0 0 42 24 74c0 0 26 36 72 36c2 0 4 0 6 0l180-14c0 0 102-13 172-50c0 0 303-161 303-392c0 0 0-113-103-200c0 0-83-70-207-107c0 0 232-125 347-263c0 0 19-23 19-50c0 0 0-32-22-55c0 0-23-22-54-22c0 0-28 0-53 23c0 0-247 244-549 328l6-146l4-147c0 0 0-32-22-53c0 0-21-22-53-22Z"/>
<path id="f0_2d" transform="scale(0.001 -0.001)" d="M404 104c3 0 5 0 8 0c0 0 71 2 103 77c0 0 36 83 39 284l10 199c0 0-9-3-31-3c-6 0-13 0-21 1c0 0-27 3-43 3c-4 0-8 0-10-1c0 0-138-24-208-139c0 0-57-94-57-220c0 0 0-88 54-143c0 0 56-58 156-58ZM552-414c0 0-69 0-73 76c0 0-2 32 4 82l10 83L507-8c0 0-64-17-90-17c0 0-163 0-264 83c0 0-108 90-108 250c0 0 0 219 123 351c0 0 125 134 340 134c1 0 2 0 3 0c0 0 41 0 62-32c0 0 32 28 57 28c0 0 30 0 52-24c0 0 22-24 22-54c0 0 0-220-26-476L644-50c0 0-18-160-18-289c0 0 0-33-21-54c0 0-20-21-53-21Z"/>
<path id="f0_14" transform="scale(0.001 -0.001)" d="M470 75c0 0 170 0 248 53c0 0 72 49 115 132c0 0 43 83 43 174c0 0 0 210-230 360c0 0-76 50-351 172l4-215l2-214L289 129c0 0 5-2 16-10c0 0 65-44 165-44Zm1-148c0 0-55 0-125 17c0 0-84 20-127 52h-7c0 0-32 0-54 21c0 0-21 23-21 55c0 0 0 78 6 235c0 0 7 156 7 234c0 0 0 88-3 261c0 0-3 174-3 261c0 0 0 30 32 64c0 0 31 34 62 34c0 0 18 0 120-50c0 0 114-56 132-62c0 0 212-73 361-223c0 0 175-177 175-388c0 0 0-128-60-245c0 0-60-117-163-188c0 0-116-78-332-78Z"/>
<path id="f0_2j" transform="scale(0.001 -0.001)" d="M706-59q-1 0-1 0c0 0-82 1-127 201c0 0-15 64-31 174L523 483L461 340L348 32c0 0-10-28-28-42c0 0-23-44-72-45c-2 0-58 2-110 221c0 0-27 116-54 314L66 591c0 0-9 68-9 113c0 0 0 31 22 52c0 0 22 20 53 20c0 0 57 0 70-61c0 0 10-44 16-109l11-110l44-335c0 0 83 230 172 530c0 0 25 82 86 82c0 0 59 0 80-92c0 0 19-87 48-268c0 0 30-188 53-293l55 202l96 407c0 0 11 45 64 45c0 0 31 0 54-21c0 0 23-21 23-51c0 0 0-4-7-34c0 0-58-244-152-550c0 0-21-68-70-138c0 0-25-39-69-39Z"/>

</defs>
<path d="M0 0V337H607V0Z" fill="#FFFFFF" stroke="none"/>
<g clip-path="url(#c_1)">
<path clip-path="url(#c1)" d="M-28.1-14.4H668.4V361.4H-28.1V-14.4Z" class="g0"/>
<path d="M414.5 183.3h3v1h-3v-1Zm6 0h3v1h-3v-1Zm6 0h3.1v1h-3.1v-1Zm6.1 0h3v1h-3v-1Zm6 0h3v1h-3v-1Zm6.1 0h3v1h-3v-1Zm6 0h3v1h-3v-1Zm6 0h3.1v1h-3.1v-1Zm6.1 0h3v1h-3v-1Zm6 0h3v1h-3v-1Zm6.1 0h3v1h-3v-1Zm6 0h3v1h-3v-1Zm6 0H490v1h-3.1v-1Zm6.1 0h3v1h-3v-1Zm6 0h3v1h-3v-1Zm6.1 0h3v1h-3v-1Zm6 0h3v1h-3v-1Zm6 0h3.1v1h-3.1v-1Zm6.1 0h3v1h-3v-1Zm6 0h3v1h-3v-1Zm6.1 0h3v1h-3v-1Zm6 0h3v1h-3v-1Zm6 0h3.1v1h-3.1v-1Zm6.1 0h3v1h-3v-1Zm6 0h3v1h-3v-1Zm6.1 0h3v1h-3v-1Zm6 0h3v1h-3v-1Zm6 0h1.1c.6 0 1.3 .1 2 .2l-.2 1c-.6-.1-1.2-.2-1.8-.2h-1.1v-1Zm6.1 1.2c1 .5 1.9 1.2 2.6 1.9l-.7 .7c-.7-.7-1.5-1.2-2.3-1.7l.4-.9Zm4.6 4.4c.5 1 .9 2 1.2 3l-1 .2c-.2-.9-.6-1.8-1.1-2.7l.9-.5Zm1.4 6.1v3h-1v-3h1Zm0 6v3.1h-1V201h1Zm0 6.1v3h-1v-3h1Zm0 6v3h-1v-3h1Zm0 6.1v3h-1v-3h1Zm0 6v3h-1v-3h1Zm0 6v3.1h-1v-3.1h1Zm0 6.1v3h-1v-3h1Zm0 6v.4c0 .9-.1 1.8-.3 2.7l-1-.2c.2-.8 .3-1.7 .3-2.5v-.4h1Zm-1.5 6.1c-.6 .9-1.2 1.7-2 2.5l-.7-.8c.7-.7 1.3-1.4 1.8-2.3l.9 .6Zm-4.7 4.3c-.9 .4-2 .8-3 .9l-.2-1c1-.1 1.9-.4 2.8-.9l.4 1Zm-6.1 1.1h-3v-1h3v1Zm-6 0h-3v-1h3v1Zm-6.1 0h-3v-1h3v1Zm-6 0h-3v-1h3v1Zm-6 0h-3.1v-1h3.1v1Zm-6.1 0h-3v-1h3v1Zm-6 0h-3v-1h3v1Zm-6.1 0h-3v-1h3v1Zm-6 0h-3v-1h3v1Zm-6 0h-3.1v-1H523v1Zm-6.1 0h-3v-1h3v1Zm-6 0h-3v-1h3v1Zm-6.1 0h-3v-1h3v1Zm-6 0h-3v-1h3v1Zm-6 0h-3.1v-1h3.1v1Zm-6.1 0h-3v-1h3v1Zm-6 0h-3v-1h3v1Zm-6.1 0h-3v-1h3v1Zm-6 0h-3v-1h3v1Zm-6 0h-3.1v-1h3.1v1Zm-6.1 0h-3v-1h3v1Zm-6 0h-3v-1h3v1Zm-6.1 0h-3v-1h3v1Zm-6 0h-3v-1h3v1Zm-6 0h-3.1v-1h3.1v1Zm-6.1 0h-3v-1h3v1Zm-6 0h-3.1v-1h3.1v1Zm-6.1 0h-3v-1h3v1Zm-6 0c-1.1 0-2.1-.2-3.1-.5l.3-1c.9 .3 1.8 .5 2.8 .5v1Zm-6-1.9c-.9-.6-1.7-1.3-2.4-2.2l.8-.6c.6 .7 1.4 1.4 2.2 1.9l-.6 .9Zm-4-4.9c-.4-1-.7-2-.8-3.1l1-.1c.1 1 .4 1.9 .7 2.8l-.9 .4Zm-.9-6.1v-3.1h1v3.1h-1Zm0-6.1v-3h1v3h-1Zm0-6v-3h1v3h-1Zm0-6.1v-3h1v3h-1Zm0-6v-3h1v3h-1Zm0-6v-3.1h1v3.1h-1Zm0-6.1v-3h1v3h-1Zm0-6v-3h1v3h-1Zm.1-6.1c.1-1 .3-2.1 .7-3.1l.9 .4c-.3 .9-.5 1.8-.6 2.8l-1-.1Zm2.2-5.9c.7-.8 1.5-1.6 2.3-2.2l.6 .8c-.8 .6-1.5 1.3-2.1 2.1l-.8-.7Zm5.1-3.7c1.1-.3 2.1-.5 3.2-.6v1c-1 .1-1.9 .3-2.8 .6l-.4-1Zm3.7-.6h3v1h-3v-1Z" class="g1"/>
<path d="M34.3 153.6H234.6c.7 0 1.4 .1 2.1 .2c.7 .1 1.3 .3 2 .6c.6 .3 1.2 .6 1.8 1c.6 .4 1.1 .8 1.6 1.3c.5 .5 .9 1 1.3 1.6c.4 .6 .7 1.2 1 1.8c.2 .7 .4 1.3 .6 2c.1 .7 .2 1.4 .2 2.1v49.3c0 .7-.1 1.4-.2 2.1c-.2 .7-.4 1.3-.6 2c-.3 .6-.6 1.2-1 1.8c-.4 .6-.8 1.1-1.3 1.6c-.5 .5-1 .9-1.6 1.3c-.6 .4-1.2 .7-1.8 1c-.7 .2-1.3 .4-2 .6c-.7 .1-1.4 .2-2.1 .2H34.3c-.7 0-1.4-.1-2.1-.2c-.7-.2-1.3-.4-2-.6c-.6-.3-1.2-.6-1.8-1c-.6-.4-1.1-.8-1.6-1.3c-.5-.5-.9-1-1.3-1.6c-.4-.6-.7-1.2-1-1.8c-.3-.7-.5-1.3-.6-2c-.1-.7-.2-1.4-.2-2.1V164.2c0-.7 .1-1.4 .2-2.1c.1-.7 .3-1.3 .6-2c.3-.6 .6-1.2 1-1.8c.4-.6 .8-1.1 1.3-1.6c.5-.5 1-.9 1.6-1.3c.6-.4 1.2-.7 1.8-1c.7-.3 1.3-.5 2-.6c.7-.1 1.4-.2 2.1-.2Z" class="g2"/>
<path d="M50.4 153.1h8v1h-8v-1Zm16.1 0h8v1h-8v-1Zm16.1 0h8v1h-8v-1Zm16.1 0h8.1v1H98.7v-1Zm16.1 0h8.1v1h-8.1v-1Zm16.1 0H139v1h-8.1v-1Zm16.1 0h8.1v1H147v-1Zm16.1 0h8.1v1h-8.1v-1Zm16.1 0h8.1v1h-8.1v-1Zm16.1 0h8.1v1h-8.1v-1Zm16.2 0h8v1h-8v-1Zm16.1 0h7c.4 0 .7 0 1 0l-.1 1.1c-.3-.1-.6-.1-.9-.1h-7v-1ZM243 157c1.8 2.1 2.7 4.5 2.7 7.2v.6h-1v-.6c0-2.5-.8-4.7-2.4-6.6l.7-.6Zm2.7 15.8v8.1h-1v-8.1h1Zm0 16.2v8h-1v-8h1Zm0 16.1v8h-1v-8h1Zm-2.8 15.8c-2 2.2-4.5 3.4-7.5 3.7l-.1-1.1c2.7-.1 5-1.3 6.8-3.3l.8 .7Zm-15.6 3.7h-8v-1h8v1Zm-16.1 0h-8v-1h8v1Zm-16.1 0h-8v-1h8v1Zm-16.1 0h-8v-1h8v1Zm-16.1 0h-8v-1h8v1Zm-16.1 0h-8.1v-1h8.1v1Zm-16.1 0h-8.1v-1h8.1v1Zm-16.1 0h-8.1v-1h8.1v1Zm-16.1 0H90.4v-1h8.1v1Zm-16.1 0H74.3v-1h8.1v1Zm-16.1 0H58.2v-1h8.1v1Zm-16.1 0H42.1v-1h8.1v1Zm-16.2 0c-2.9-.1-5.5-1.2-7.6-3.3l.7-.7c1.9 1.9 4.3 2.9 7 3l-.1 1ZM23.2 213.7q0-.1 0-.2v-7.9h1v7.9q0 .1 0 .2h-1Zm0-16.1v-8.1h1v8.1h-1Zm0-16.1v-8.1h1v8.1h-1Zm0-16.2v-1.1c0-2.5 .8-4.8 2.3-6.8l.8 .7c-1.4 1.8-2.1 3.8-2.1 6.1v1.1h-1Zm9.5-12.1c.5-.1 1-.1 1.6-.1h8v1h-8c-.5 0-1 0-1.5 .1l-.1-1Z" class="g3"/>
<path d="M10.3 254.3H256.6c.5 0 1 0 1.5 .1c.5 .1 1 .3 1.5 .5c.4 .2 .9 .4 1.3 .7c.4 .3 .8 .6 1.2 .9c.3 .4 .6 .8 .9 1.2c.3 .4 .5 .9 .7 1.3c.2 .5 .4 1 .5 1.5c.1 .5 .1 1 .1 1.5v35.9c0 .5 0 1-.1 1.5c-.1 .5-.3 1-.5 1.5c-.2 .4-.4 .9-.7 1.3c-.3 .4-.6 .8-.9 1.2c-.4 .3-.8 .6-1.2 .9c-.4 .3-.9 .5-1.3 .7c-.5 .2-1 .4-1.5 .5c-.5 .1-1 .1-1.5 .1H10.3c-.5 0-1 0-1.5-.1c-.5-.1-1-.3-1.5-.5c-.5-.2-.9-.4-1.3-.7c-.4-.3-.8-.6-1.2-.9c-.3-.4-.7-.8-.9-1.2c-.3-.4-.6-.9-.8-1.3c-.1-.5-.3-1-.4-1.5c-.1-.5-.1-1-.1-1.5V262c0-.5 0-1 .1-1.5c.1-.5 .3-1 .4-1.5c.2-.4 .5-.9 .8-1.3c.2-.4 .6-.8 .9-1.2c.4-.3 .8-.6 1.2-.9c.4-.3 .8-.5 1.3-.7c.5-.2 1-.4 1.5-.5c.5-.1 1-.1 1.5-.1Z" class="g2"/>
<path d="M26.4 253.8h8v1h-8v-1Zm16.1 0h8v1h-8v-1Zm16.1 0h8v1h-8v-1Zm16.1 0h8v1h-8v-1Zm16.1 0h8.1v1H90.8v-1Zm16.1 0H115v1h-8.1v-1Zm16.1 0h8.1v1H123v-1Zm16.1 0h8.1v1h-8.1v-1Zm16.1 0h8.1v1h-8.1v-1Zm16.1 0h8.1v1h-8.1v-1Zm16.1 0h8.1v1h-8.1v-1Zm16.2 0h8v1h-8v-1Zm16.1 0h8v1h-8v-1Zm16.1 0h8v1h-8v-1Zm16.1 0h4.7c1.2 0 2.4 .2 3.5 .7l-.5 .9c-.9-.4-1.9-.6-3-.6h-4.7v-1Zm12.9 7.5c0 .2 0 .5 0 .7v7.4h-1V262c0-.2 0-.4 0-.6l1-.1Zm0 16.1v8.1h-1v-8.1h1Zm0 16.2v4.3c0 1.4-.3 2.6-.9 3.8l-.9-.5c.5-1 .8-2.1 .8-3.3v-4.3h1Zm-7.9 12.5c-.1 0-.2 0-.3 0h-7.8v-1h7.8c.1 0 .2 0 .3 0v1Zm-16.1 0h-8.1v-1h8.1v1Zm-16.1 0h-8.1v-1h8.1v1Zm-16.1 0h-8.1v-1h8.1v1Zm-16.1 0h-8.1v-1h8.1v1Zm-16.1 0h-8.1v-1h8.1v1Zm-16.2 0h-8v-1h8v1Zm-16.1 0h-8v-1h8v1Zm-16.1 0h-8v-1h8v1Zm-16.1 0h-8v-1h8v1Zm-16.1 0h-8v-1h8v1Zm-16.1 0H71.6v-1h8.1v1Zm-16.1 0H55.5v-1h8.1v1Zm-16.1 0H39.4v-1h8.1v1Zm-16.1 0H23.3v-1h8.1v1Zm-16.1 0h-5c-1.1 0-2.2-.2-3.2-.6l.4-.9c.9 .3 1.8 .5 2.8 .5h5v1ZM2.1 298.9c0-.3 0-.7 0-1v-7.1h1v7.1c0 .3 0 .6 0 .9l-1 .1Zm0-16.2v-8h1v8h-1Zm0-16.1V262c0-1.3 .2-2.4 .7-3.5l1 .4c-.5 1-.7 2-.7 3.1v4.6h-1Zm7.6-12.8c.2 0 .4 0 .6 0h8v1h-8c-.2 0-.4 0-.5 0l-.1-1Z" class="g3"/>
<g fill="#000" clip-path="url(#c0)">
<use href="#f0_1j" transform="matrix(7.9 0 0 7.9 94.1 300.1)"/>
<use href="#f0_2g" transform="matrix(7.9 0 0 7.9 102.5 300.1)"/>
<use href="#f0_1x" transform="matrix(7.9 0 0 7.9 108.2 300.1)"/>
<use href="#f0_2g" transform="matrix(7.9 0 0 7.9 114.4 300.1)"/>
<use href="#f0_25" transform="matrix(7.9 0 0 7.9 120.1 300.1)"/>
<use href="#f0_1z" transform="matrix(7.9 0 0 7.9 123.5 300.1)"/>
<use href="#f0_1d" transform="matrix(7.9 0 0 7.9 129.7 300.1)"/>
<use href="#f0_21" transform="matrix(7.9 0 0 7.9 140.3 300.1)"/>
<use href="#f0_29" transform="matrix(7.9 0 0 7.9 146.9 300.1)"/>
<use href="#f0_2b" transform="matrix(7.9 0 0 7.9 156.3 300.1)"/>
<use href="#f0_2e" transform="matrix(7.9 0 0 7.9 162.7 300.1)"/>
<use href="#f0_2l" transform="matrix(7.9 0 0 7.9 168.5 300.1)"/>
</g>
<text clip-path="url(#c0)" x="94.1" y="300.1" class="s0">StaticMemory </text>
<path d="M327.9 183.8h160c.7 0 1.4 .1 2.1 .2c.7 .1 1.4 .3 2 .6c.6 .3 1.2 .6 1.8 1c.6 .4 1.1 .8 1.6 1.3c.5 .5 1 1 1.3 1.6c.4 .6 .7 1.2 1 1.8c.3 .7 .5 1.3 .6 2c.2 .7 .2 1.4 .2 2.1v49.3c0 .7 0 1.4-.2 2.1c-.1 .7-.3 1.3-.6 2c-.3 .6-.6 1.2-1 1.8c-.3 .6-.8 1.1-1.3 1.6c-.5 .5-1 .9-1.6 1.3c-.6 .4-1.2 .7-1.8 1c-.6 .2-1.3 .4-2 .6c-.7 .1-1.4 .2-2.1 .2h-160c-.7 0-1.4-.1-2.1-.2c-.7-.2-1.3-.4-2-.6c-.6-.3-1.2-.6-1.8-1c-.6-.4-1.1-.8-1.6-1.3c-.5-.5-.9-1-1.3-1.6c-.4-.6-.7-1.2-1-1.8c-.3-.7-.5-1.3-.6-2c-.1-.7-.2-1.4-.2-2.1V194.4c0-.7 .1-1.4 .2-2.1c.1-.7 .3-1.3 .6-2c.3-.6 .6-1.2 1-1.8c.4-.6 .8-1.1 1.3-1.6c.5-.5 1-.9 1.6-1.3c.6-.4 1.2-.7 1.8-1c.7-.3 1.3-.5 2-.6c.7-.1 1.4-.2 2.1-.2Z" class="g4"/>
<path d="M320.7 2.6H550.2c.8 0 1.6 .1 2.3 .5c.8 .3 1.4 .7 2 1.3c.6 .5 1 1.2 1.3 1.9c.3 .8 .5 1.5 .5 2.3V36.8c0 .8-.2 1.6-.5 2.3c-.3 .8-.7 1.4-1.3 2c-.6 .6-1.2 1-2 1.3c-.7 .3-1.5 .5-2.3 .5H320.7c-.8 0-1.6-.2-2.3-.5c-.8-.3-1.4-.7-2-1.3c-.5-.6-1-1.2-1.3-2c-.3-.7-.5-1.5-.5-2.3V8.6c0-.8 .2-1.5 .5-2.3c.3-.7 .8-1.4 1.3-1.9c.6-.6 1.2-1 2-1.3c.7-.4 1.5-.5 2.3-.5Z" class="g2"/>
<path d="M336.8 2.1h8.1v1h-8.1v-1Zm16.1 0H361v1h-8.1v-1Zm16.1 0h8.1v1H369v-1Zm16.1 0h8.1v1h-8.1v-1Zm16.1 0h8.1v1h-8.1v-1Zm16.1 0h8.1v1h-8.1v-1Zm16.1 0h8.1v1h-8.1v-1Zm16.2 0h8v1h-8v-1Zm16.1 0h8v1h-8v-1Zm16.1 0h8v1h-8v-1Zm16.1 0h8v1h-8v-1Zm16.1 0h8v1h-8v-1Zm16.1 0h8v1h-8v-1Zm16.1 0h4c1.6 0 2.9 .5 4.1 1.4l-.6 .8c-1-.8-2.2-1.2-3.5-1.2h-4v-1Zm10.6 9.4v8h-1v-8h1Zm0 16.1v8h-1v-8h1Zm-4.1 15.3c-.8 .3-1.6 .5-2.5 .5h-5.6v-1h5.6c.8 0 1.5-.2 2.1-.5l.4 1Zm-16.2 .5h-8.1v-1h8.1v1Zm-16.1 0h-8.1v-1h8.1v1Zm-16.1 0h-8.1v-1h8.1v1Zm-16.1 0h-8.1v-1h8.1v1Zm-16.1 0H464v-1h8.1v1Zm-16.1 0h-8.1v-1H456v1Zm-16.1 0h-8.1v-1h8.1v1Zm-16.2 0h-8v-1h8v1Zm-16.1 0h-8v-1h8v1Zm-16.1 0h-8v-1h8v1Zm-16.1 0h-8v-1h8v1Zm-16.1 0h-8v-1h8v1Zm-16.1 0h-8v-1h8v1Zm-16.1 0h-6.4c-.6 0-1.2-.1-1.7-.3l.2-.9c.5 .1 1 .2 1.5 .2h6.4v1Zm-13-7V28.3h1.1v8.1h-1.1Zm0-16.1V12.2h1.1v8.1h-1.1Zm1.8-16.2c1.3-1.3 2.9-2 4.8-2h8v1h-8c-1.6 0-2.9 .6-4 1.7l-.8-.7Z" class="g3"/>
<path d="M329.7 7.6h36.2c.6 0 1.1 .1 1.7 .4c.5 .2 1 .5 1.5 1c.4 .4 .7 .9 .9 1.4c.3 .6 .4 1.2 .4 1.8V33.3c0 .6-.1 1.2-.4 1.7c-.2 .6-.5 1.1-.9 1.5c-.5 .4-1 .8-1.5 1c-.6 .2-1.1 .3-1.7 .3H329.7c-.6 0-1.2-.1-1.7-.3c-.6-.2-1.1-.6-1.5-1c-.4-.4-.7-.9-1-1.5c-.2-.5-.3-1.1-.3-1.7V12.2c0-.6 .1-1.2 .3-1.8c.3-.5 .6-1 1-1.4c.4-.5 .9-.8 1.5-1c.5-.3 1.1-.4 1.7-.4Z" class="g5"/>
<path d="M329.7 7.6h36.2c.6 0 1.1 .1 1.7 .4c.5 .2 1 .5 1.5 1c.4 .4 .7 .9 .9 1.4c.3 .6 .4 1.2 .4 1.8V33.3c0 .6-.1 1.2-.4 1.7c-.2 .6-.5 1.1-.9 1.5c-.5 .4-1 .8-1.5 1c-.6 .2-1.1 .3-1.7 .3H329.7c-.6 0-1.2-.1-1.7-.3c-.6-.2-1.1-.6-1.5-1c-.4-.4-.7-.9-1-1.5c-.2-.5-.3-1.1-.3-1.7V12.2c0-.6 .1-1.2 .3-1.8c.3-.5 .6-1 1-1.4c.4-.5 .9-.8 1.5-1c.5-.3 1.1-.4 1.7-.4Z" class="g6"/>
<g fill="#000" clip-path="url(#c0)">
<use href="#f0_1b" transform="matrix(7.9 0 0 7.9 334.7 27.3)"/>
<use href="#f0_1m" transform="matrix(7.9 0 0 7.9 342.1 27.3)"/>
<use href="#f0_l" transform="matrix(7.9 0 0 7.9 353.6 27.3)"/>
</g>
<text clip-path="url(#c0)" x="334.7" y="27.3" class="s0">KV 1 </text>
<path d="M398.9 7.6H435c.6 0 1.2 .1 1.8 .4c.5 .2 1 .5 1.4 1c.5 .4 .8 .9 1 1.4c.2 .6 .4 1.2 .4 1.8V33.3c0 .6-.2 1.2-.4 1.7c-.2 .6-.5 1.1-1 1.5c-.4 .4-.9 .8-1.4 1c-.6 .2-1.2 .3-1.8 .3H398.9c-.6 0-1.2-.1-1.7-.3c-.6-.2-1.1-.6-1.5-1c-.4-.4-.8-.9-1-1.5c-.2-.5-.3-1.1-.3-1.7V12.2c0-.6 .1-1.2 .3-1.8c.2-.5 .6-1 1-1.4c.4-.5 .9-.8 1.5-1c.5-.3 1.1-.4 1.7-.4Z" class="g5"/>
<path d="M398.9 7.6H435c.6 0 1.2 .1 1.8 .4c.5 .2 1 .5 1.4 1c.5 .4 .8 .9 1 1.4c.2 .6 .4 1.2 .4 1.8V33.3c0 .6-.2 1.2-.4 1.7c-.2 .6-.5 1.1-1 1.5c-.4 .4-.9 .8-1.4 1c-.6 .2-1.2 .3-1.8 .3H398.9c-.6 0-1.2-.1-1.7-.3c-.6-.2-1.1-.6-1.5-1c-.4-.4-.8-.9-1-1.5c-.2-.5-.3-1.1-.3-1.7V12.2c0-.6 .1-1.2 .3-1.8c.2-.5 .6-1 1-1.4c.4-.5 .9-.8 1.5-1c.5-.3 1.1-.4 1.7-.4Z" class="g6"/>
<g fill="#000" clip-path="url(#c0)">
<use href="#f0_1b" transform="matrix(7.9 0 0 7.9 403.2 27.3)"/>
<use href="#f0_1m" transform="matrix(7.9 0 0 7.9 410.6 27.3)"/>
<use href="#f0_m" transform="matrix(7.9 0 0 7.9 422.1 27.3)"/>
</g>
<text clip-path="url(#c0)" x="403.2" y="27.3" class="s0">KV 2 </text>
<path d="M505.5 7.6h36.2c.6 0 1.1 .1 1.7 .4c.6 .2 1 .5 1.5 1c.4 .4 .7 .9 1 1.4c.2 .6 .3 1.2 .3 1.8V33.3c0 .6-.1 1.2-.3 1.7c-.3 .6-.6 1.1-1 1.5c-.5 .4-.9 .8-1.5 1c-.6 .2-1.1 .3-1.7 .3H505.5c-.6 0-1.1-.1-1.7-.3c-.6-.2-1-.6-1.5-1c-.4-.4-.7-.9-.9-1.5c-.3-.5-.4-1.1-.4-1.7V12.2c0-.6 .1-1.2 .4-1.8c.2-.5 .5-1 .9-1.4c.5-.5 .9-.8 1.5-1c.6-.3 1.1-.4 1.7-.4Z" class="g5"/>
<path d="M505.5 7.6h36.2c.6 0 1.1 .1 1.7 .4c.6 .2 1 .5 1.5 1c.4 .4 .7 .9 1 1.4c.2 .6 .3 1.2 .3 1.8V33.3c0 .6-.1 1.2-.3 1.7c-.3 .6-.6 1.1-1 1.5c-.5 .4-.9 .8-1.5 1c-.6 .2-1.1 .3-1.7 .3H505.5c-.6 0-1.1-.1-1.7-.3c-.6-.2-1-.6-1.5-1c-.4-.4-.7-.9-.9-1.5c-.3-.5-.4-1.1-.4-1.7V12.2c0-.6 .1-1.2 .4-1.8c.2-.5 .5-1 .9-1.4c.5-.5 .9-.8 1.5-1c.6-.3 1.1-.4 1.7-.4Z" class="g6"/>
<g fill="#000" clip-path="url(#c0)">
<use href="#f0_1b" transform="matrix(7.9 0 0 7.9 510.5 27.3)"/>
<use href="#f0_1m" transform="matrix(7.9 0 0 7.9 517.8 27.3)"/>
<use href="#f0_2a" transform="matrix(7.9 0 0 7.9 529.3 27.3)"/>
</g>
<text clip-path="url(#c0)" x="510.5" y="27.3" class="s0">KV n </text>
<path d="M272.9 324.2v-2h2v2m-2-8v-2h2v2m-2-8.1v-2h2v2m-2-8v-2h2v2m-2-8.1v-2h2v2m-2-8v-2h2v2m-2-8.1v-2h2v2m-2-8v-2h2v2m-2-8.1v-2h2v2m-2-8v-2h2v2m-2-8.1v-2h2v2m-2-8v-2.1h2v2.1m-2-8.1v-2h2v2m-2-8.1v-2h2v2m-2-8v-2h2v2m-2-8.1v-2h2v2m-2-8v-2h2v2m-2-8.1v-2h2v2m-2-8v-2h2v2m-2-8.1v-2h2v2m-2-8v-2h2v2m-2-8.1v-2h2v2m-2-8V145h2v2.1m-2-8.1v-2h2v2m-2-8v-2.1h2V131m-2-8.1v-2h2v2m-2-8.1v-2h2v2m-2-8v-2h2v2m-2-8.1v-2h2v2m-2-8v-2h2v2m-2-8.1v-2h2v2m-2-8v-2h2v2m-2-8.1v-2h2v2m-2-8v-2h2v2m-2-8.1v-2h2v2m-2-8V40.3h2v2.1m-2-8.1v-2h2v2m-2-8V24.2h2v2.1m-2-8.1v-2h2v2m-2-8.1v-2h2v2Z" class="g1"/>
<path d="M125 33.7h17.8c.4 0 .7-.1 .9-.4c.3-.2 .4-.5 .4-.9c0-.3-.1-.6-.4-.9c-.2-.2-.5-.3-.9-.3H125c-.3 0-.6 .1-.9 .3c-.2 .3-.3 .6-.3 .9c0 .4 .1 .7 .3 .9c.3 .3 .6 .4 .9 .4Zm0 8.9h17.8c.4 0 .7-.1 .9-.3c.3-.3 .4-.6 .4-.9c0-.4-.1-.7-.4-.9c-.2-.3-.5-.4-.9-.4H125c-.3 0-.6 .1-.9 .4c-.2 .2-.3 .5-.3 .9c0 .3 .1 .6 .3 .9c.3 .2 .6 .3 .9 .3ZM135.2 49H125c-.3 0-.6 .1-.9 .4c-.2 .2-.3 .5-.3 .9c0 .3 .1 .6 .3 .9c.3 .2 .6 .4 .9 .4h10.2c.4 0 .7-.2 .9-.4c.3-.3 .4-.6 .4-.9c0-.4-.1-.7-.4-.9c-.2-.3-.5-.4-.9-.4Z" class="g1"/>
<path d="M149.2 26.2c0-2.2-1.8-4-3.9-4H122.6c-2.2 0-3.9 1.8-3.9 4V56.5c0 2.2 1.7 4 3.9 4h17.3q.1 0 .2-.1c.3 .1 .7 0 1-.2l7.6-6.4c.4-.3 .5-.6 .5-1.1c0 0 0-.1 0-.1V26.2Zm-28 30.3V26.2c0-.8 .6-1.4 1.4-1.4h22.7c.7 0 1.4 .6 1.4 1.4V50.3h-3.9c-.5 0-1 .1-1.4 .3c-.5 .2-.9 .4-1.3 .8c-.3 .4-.6 .8-.8 1.2c-.2 .5-.3 1-.3 1.5v3.8H122.6c-.8 0-1.4-.6-1.4-1.4Zm24.7-3.7l-4.3 3.7V54.1c0-.3 .1-.6 .3-.9c.3-.2 .6-.4 .9-.4h3.1Z" class="g1"/>
<path d="M32.4 83.1v-5c0-1 .3-1.7 .9-2.4l-.7-.7c-.8 .9-1.2 1.9-1.2 3.1v5h1Zm8.1-9.5c.5 0 1 0 1.5 0h6.7v-1H42c-.6 0-1.1 0-1.6 0l.1 1Zm16.2 0h8.1v-1H56.7v1Zm16.1 0h8.1v-1H72.8v1Zm16.1 0H97v-1H88.9v1Zm16.1 0h8.1v-1H105v1Zm16.1 0h1.4c2.9 0 5.2-.3 6.9-1l-.4-.9c-1.5 .6-3.7 .9-6.5 .9h-1.4v1Zm12-7.9v-1h-1v5.9c0 .6 .3 1.2 1 1.6l.6-.9c-.4-.2-.6-.5-.6-.7V64.7c0-.2-.1-.3-.2-.4c-.1-.1-.2-.1-.3-.1c-.2 0-.3 0-.4 .1c-.1 .1-.1 .2-.1 .4v1h1Zm8.1 7.9c.5 0 .9 0 1.4 0h6.8v-1h-6.8c-.5 0-.9 0-1.4 0v1Zm16.2 0h8.1v-1h-8.1v1Zm16.1 0h8.1v-1h-8.1v1Zm16.2 0h8v-1h-8v1Zm16.1 0h8v-1h-8v1Zm16.1 0h1.3c2.8 0 5 .3 6.6 .9l.3-1c-1.7-.6-4-.9-6.9-.9h-1.3v1Zm10.8 6.8v2.7h1.1V80.4h-1.1Z" class="g1"/>
<path d="M7.1 93.2H58.4c.6 0 1.2 .1 1.8 .3c.5 .3 1 .6 1.4 1c.5 .5 .8 .9 1 1.5c.2 .6 .4 1.1 .4 1.7v21.2c0 .6-.2 1.2-.4 1.7c-.2 .6-.5 1.1-1 1.5c-.4 .4-.9 .7-1.4 1c-.6 .2-1.2 .3-1.8 .3H7.1c-.6 0-1.2-.1-1.7-.3c-.6-.3-1.1-.6-1.5-1c-.4-.4-.8-.9-1-1.5c-.2-.5-.3-1.1-.3-1.7V97.7c0-.6 .1-1.1 .3-1.7c.2-.6 .6-1 1-1.5c.4-.4 .9-.7 1.5-1c.5-.2 1.1-.3 1.7-.3Z" class="g7"/>
<path d="M7.1 93.2H58.4c.6 0 1.2 .1 1.8 .3c.5 .3 1 .6 1.4 1c.5 .5 .8 .9 1 1.5c.2 .6 .4 1.1 .4 1.7v21.2c0 .6-.2 1.2-.4 1.7c-.2 .6-.5 1.1-1 1.5c-.4 .4-.9 .7-1.4 1c-.6 .2-1.2 .3-1.8 .3H7.1c-.6 0-1.2-.1-1.7-.3c-.6-.3-1.1-.6-1.5-1c-.4-.4-.8-.9-1-1.5c-.2-.5-.3-1.1-.3-1.7V97.7c0-.6 .1-1.1 .3-1.7c.2-.6 .6-1 1-1.5c.4-.4 .9-.7 1.5-1c.5-.2 1.1-.3 1.7-.3Z" class="g8"/>
<g fill="#000" clip-path="url(#c0)">
<use href="#f0_1z" transform="matrix(7.9 0 0 7.9 11.6 112.8)"/>
<use href="#f0_24" transform="matrix(7.9 0 0 7.9 17.8 112.8)"/>
<use href="#f0_2h" transform="matrix(7.9 0 0 7.9 24.8 112.8)"/>
<use href="#f0_2a" transform="matrix(7.9 0 0 7.9 31 112.8)"/>
<use href="#f0_27" transform="matrix(7.9 0 0 7.9 37.4 112.8)"/>
<use href="#f0_l" transform="matrix(7.9 0 0 7.9 47.5 112.8)"/>
</g>
<text clip-path="url(#c0)" x="11.6" y="112.8" class="s0">chunk 1 </text>
<path d="M86.8 93.2h51.3c.6 0 1.2 .1 1.8 .3c.5 .3 1 .6 1.4 1c.4 .5 .8 .9 1 1.5c.2 .6 .3 1.1 .3 1.7v21.2c0 .6-.1 1.2-.3 1.7c-.2 .6-.6 1.1-1 1.5c-.4 .4-.9 .7-1.4 1c-.6 .2-1.2 .3-1.8 .3H86.8c-.6 0-1.2-.1-1.8-.3c-.5-.3-1-.6-1.4-1c-.5-.4-.8-.9-1-1.5c-.2-.5-.4-1.1-.4-1.7V97.7c0-.6 .2-1.1 .4-1.7c.2-.6 .5-1 1-1.5c.4-.4 .9-.7 1.4-1c.6-.2 1.2-.3 1.8-.3Z" class="g7"/>
<path d="M86.8 93.2h51.3c.6 0 1.2 .1 1.8 .3c.5 .3 1 .6 1.4 1c.4 .5 .8 .9 1 1.5c.2 .6 .3 1.1 .3 1.7v21.2c0 .6-.1 1.2-.3 1.7c-.2 .6-.6 1.1-1 1.5c-.4 .4-.9 .7-1.4 1c-.6 .2-1.2 .3-1.8 .3H86.8c-.6 0-1.2-.1-1.8-.3c-.5-.3-1-.6-1.4-1c-.5-.4-.8-.9-1-1.5c-.2-.5-.4-1.1-.4-1.7V97.7c0-.6 .2-1.1 .4-1.7c.2-.6 .5-1 1-1.5c.4-.4 .9-.7 1.4-1c.6-.2 1.2-.3 1.8-.3Z" class="g8"/>
<g fill="#000" clip-path="url(#c0)">
<use href="#f0_1z" transform="matrix(7.9 0 0 7.9 90.1 112.8)"/>
<use href="#f0_24" transform="matrix(7.9 0 0 7.9 96.3 112.8)"/>
<use href="#f0_2h" transform="matrix(7.9 0 0 7.9 103.3 112.8)"/>
<use href="#f0_2a" transform="matrix(7.9 0 0 7.9 109.6 112.8)"/>
<use href="#f0_27" transform="matrix(7.9 0 0 7.9 115.9 112.8)"/>
<use href="#f0_m" transform="matrix(7.9 0 0 7.9 126.1 112.8)"/>
</g>
<text clip-path="url(#c0)" x="90.1" y="112.8" class="s0">chunk 2 </text>
<path d="M208.4 93.2h51.4c.6 0 1.2 .1 1.7 .3c.6 .3 1.1 .6 1.5 1c.4 .5 .7 .9 1 1.5c.2 .6 .3 1.1 .3 1.7v21.2c0 .6-.1 1.2-.3 1.7c-.3 .6-.6 1.1-1 1.5c-.4 .4-.9 .7-1.5 1c-.5 .2-1.1 .3-1.7 .3H208.4c-.6 0-1.1-.1-1.7-.3c-.6-.3-1-.6-1.5-1c-.4-.4-.7-.9-.9-1.5c-.3-.5-.4-1.1-.4-1.7V97.7c0-.6 .1-1.1 .4-1.7c.2-.6 .5-1 .9-1.5c.5-.4 .9-.7 1.5-1c.6-.2 1.1-.3 1.7-.3Z" class="g7"/>
<path d="M208.4 93.2h51.4c.6 0 1.2 .1 1.7 .3c.6 .3 1.1 .6 1.5 1c.4 .5 .7 .9 1 1.5c.2 .6 .3 1.1 .3 1.7v21.2c0 .6-.1 1.2-.3 1.7c-.3 .6-.6 1.1-1 1.5c-.4 .4-.9 .7-1.5 1c-.5 .2-1.1 .3-1.7 .3H208.4c-.6 0-1.1-.1-1.7-.3c-.6-.3-1-.6-1.5-1c-.4-.4-.7-.9-.9-1.5c-.3-.5-.4-1.1-.4-1.7V97.7c0-.6 .1-1.1 .4-1.7c.2-.6 .5-1 .9-1.5c.5-.4 .9-.7 1.5-1c.6-.2 1.1-.3 1.7-.3Z" class="g8"/>
<g fill="#000" clip-path="url(#c0)">
<use href="#f0_1z" transform="matrix(7.9 0 0 7.9 212.5 112.8)"/>
<use href="#f0_24" transform="matrix(7.9 0 0 7.9 218.7 112.8)"/>
<use href="#f0_2h" transform="matrix(7.9 0 0 7.9 225.7 112.8)"/>
<use href="#f0_2a" transform="matrix(7.9 0 0 7.9 231.9 112.8)"/>
<use href="#f0_27" transform="matrix(7.9 0 0 7.9 238.3 112.8)"/>
<use href="#f0_2a" transform="matrix(7.9 0 0 7.9 248.4 112.8)"/>
</g>
<text clip-path="url(#c0)" x="212.5" y="112.8" class="s0">chunk n </text>
<path d="M173.7 163.7h54.4c.8 0 1.5 .1 2.3 .4c.7 .3 1.4 .8 1.9 1.3c.6 .6 1 1.3 1.3 2c.4 .7 .5 1.5 .5 2.3v28.2c0 .8-.1 1.6-.5 2.3c-.3 .8-.7 1.4-1.3 2c-.5 .5-1.2 1-1.9 1.3c-.8 .3-1.5 .4-2.3 .4H173.7c-.8 0-1.6-.1-2.3-.4c-.7-.3-1.4-.8-2-1.3c-.5-.6-1-1.2-1.3-2c-.3-.7-.4-1.5-.4-2.3V169.7c0-.8 .1-1.6 .4-2.3c.3-.7 .8-1.4 1.3-2c.6-.5 1.3-1 2-1.3c.7-.3 1.5-.4 2.3-.4Z" class="g5"/>
<path d="M173.7 163.7h54.4c.8 0 1.5 .1 2.3 .4c.7 .3 1.4 .8 1.9 1.3c.6 .6 1 1.3 1.3 2c.4 .7 .5 1.5 .5 2.3v28.2c0 .8-.1 1.6-.5 2.3c-.3 .8-.7 1.4-1.3 2c-.5 .5-1.2 1-1.9 1.3c-.8 .3-1.5 .4-2.3 .4H173.7c-.8 0-1.6-.1-2.3-.4c-.7-.3-1.4-.8-2-1.3c-.5-.6-1-1.2-1.3-2c-.3-.7-.4-1.5-.4-2.3V169.7c0-.8 .1-1.6 .4-2.3c.3-.7 .8-1.4 1.3-2c.6-.5 1.3-1 2-1.3c.7-.3 1.5-.4 2.3-.4Z" class="g6"/>
<path d="M188.3 188h.2v-.8H188c-.2 0-.6 0-.8 0c-.6 0-.7-.1-.9-.2v-1.6h.3c1.7-.2 3.3-1.1 3.8-2.2c.2-.4 .3-.7 .3-1.1c0-.4-.1-.6-.3-1c-.5-1.1-2.1-2-3.8-2.2l-.3-.1v-1.5c.2-.2 .3-.2 .9-.2c.2-.1 .6-.1 .8-.1h.5v-.7h-.2c-.3 0-2.3 0-2.8 0c-.6 0-2.6 0-2.9 0h-.2v.7h.5c.2 0 .6 0 .8 .1q.7 0 .9 .2v1.5c0 .1-.2 .1-.3 .1c-.8 .1-1.6 .4-2.3 .7c-1 .6-1.6 1.3-1.8 2.1c0 .1 0 .3 0 .4c0 .2 0 .4 0 .5c.2 .8 .8 1.5 1.8 2.1c.7 .3 1.5 .6 2.3 .7c.1 0 .3 0 .3 0V187c-.2 .1-.2 .2-.9 .2c-.2 0-.6 0-.8 0h-.5v.8h.2c.3 0 2.3 0 2.9 0c.5 0 2.5 0 2.8 0m-6.1-5.9c0-1.5 .6-2.2 1.8-2.5c.2-.1 .5-.1 .6-.1v5.3h-.1c-1.5-.3-2.3-1-2.3-2.7m4.2 2.7h-.1v-5.3h.1c0 0 .1 0 .2 0c1.4 .3 2.1 1.1 2.1 2.6c0 1.7-.8 2.4-2.3 2.7Z" class="g1"/>
<path d="M188.3 188h.2v-.8H188c-.2 0-.6 0-.8 0c-.6 0-.7-.1-.9-.2v-1.6h.3c1.7-.2 3.3-1.1 3.8-2.2c.2-.4 .3-.7 .3-1.1c0-.4-.1-.6-.3-1c-.5-1.1-2.1-2-3.8-2.2l-.3-.1v-1.5c.2-.2 .3-.2 .9-.2c.2-.1 .6-.1 .8-.1h.5v-.7h-.2c-.3 0-2.3 0-2.8 0c-.6 0-2.6 0-2.9 0h-.2v.7h.5c.2 0 .6 0 .8 .1q.7 0 .9 .2v1.5c0 .1-.2 .1-.3 .1c-.8 .1-1.6 .4-2.3 .7c-1 .6-1.6 1.3-1.8 2.1c0 .1 0 .3 0 .4c0 .2 0 .4 0 .5c.2 .8 .8 1.5 1.8 2.1c.7 .3 1.5 .6 2.3 .7c.1 0 .3 0 .3 0V187c-.2 .1-.2 .2-.9 .2c-.2 0-.6 0-.8 0h-.5v.8h.2c.3 0 2.3 0 2.9 0c.5 0 2.5 0 2.8 0m-6.1-5.9c0-1.5 .6-2.2 1.8-2.5c.2-.1 .5-.1 .6-.1v5.3h-.1c-1.5-.3-2.3-1-2.3-2.7m4.2 2.7h-.1v-5.3h.1c0 0 .1 0 .2 0c1.4 .3 2.1 1.1 2.1 2.6c0 1.7-.8 2.4-2.3 2.7Z" class="g9"/>
<path d="M196.5 186.9c.4 0 .6-.3 .6-.7c0-.1 0-.2 0-.2c-.2-.7-.9-.9-1.8-.9c-.7 0-1.2 .3-1.6 .6c-.6 .5-.9 1.1-1 1.9c-.1 .1-.1 .2-.1 .4c0 .1 0 .3 .1 .4c.1 .9 .6 1.6 1.4 2c.4 .2 .7 .3 1.2 .3c.7 0 1.3-.3 1.7-.9c.1-.1 .3-.6 .3-.7c0 0-.1-.1-.1-.1H197q-.2 0-.2 .2c-.1 .4-.4 .8-.7 .9c-.2 .1-.4 .1-.6 .1c-.6 0-1-.3-1.3-.7c-.3-.4-.4-.9-.4-1.6c0-.9 .2-1.5 .6-1.9c.3-.3 .5-.4 1-.4c.2 0 .4 .1 .6 .1q.1 0 0 .1c-.1 .1-.2 .3-.2 .4c0 .4 .3 .7 .7 .7Z" class="g1"/>
<path d="M196.5 186.9c.4 0 .6-.3 .6-.7c0-.1 0-.2 0-.2c-.2-.7-.9-.9-1.8-.9c-.7 0-1.2 .3-1.6 .6c-.6 .5-.9 1.1-1 1.9c-.1 .1-.1 .2-.1 .4c0 .1 0 .3 .1 .4c.1 .9 .6 1.6 1.4 2c.4 .2 .7 .3 1.2 .3c.7 0 1.3-.3 1.7-.9c.1-.1 .3-.6 .3-.7c0 0-.1-.1-.1-.1H197q-.2 0-.2 .2c-.1 .4-.4 .8-.7 .9c-.2 .1-.4 .1-.6 .1c-.6 0-1-.3-1.3-.7c-.3-.4-.4-.9-.4-1.6c0-.9 .2-1.5 .6-1.9c.3-.3 .5-.4 1-.4c.2 0 .4 .1 .6 .1q.1 0 0 .1c-.1 .1-.2 .3-.2 .4c0 .4 .3 .7 .7 .7Z" class="ga"/>
<path d="M198 188c0 1.3 .8 2.3 2 2.6c.3 .1 .4 .1 .7 .1c.2 0 .4 0 .6-.1c1-.2 1.8-1 2-2.1c0-.1 .1-.3 .1-.5c0-.8-.4-1.6-.9-2.1c-.5-.5-1.2-.8-1.8-.8c-.1 0-.2 .1-.3 .1c-1.3 .1-2.4 1.3-2.4 2.8m2.9-2.4c.7 .1 1.1 .5 1.2 1.2c.1 .3 .1 .4 .1 1.1v.3c0 1.2-.4 2-1.5 2c-.7 0-1.1-.3-1.3-.7c-.2-.5-.2-.9-.2-1.7c0-.3 0-.6 0-.7c.1-.7 .3-1.1 .8-1.4c.2-.1 .5-.1 .7-.1q.1 0 .2 0Z" class="g1"/>
<path d="M198 188c0 1.3 .8 2.3 2 2.6c.3 .1 .4 .1 .7 .1c.2 0 .4 0 .6-.1c1-.2 1.8-1 2-2.1c0-.1 .1-.3 .1-.5c0-.8-.4-1.6-.9-2.1c-.5-.5-1.2-.8-1.8-.8c-.1 0-.2 .1-.3 .1c-1.3 .1-2.4 1.3-2.4 2.8m2.9-2.4c.7 .1 1.1 .5 1.2 1.2c.1 .3 .1 .4 .1 1.1v.3c0 1.2-.4 2-1.5 2c-.7 0-1.1-.3-1.3-.7c-.2-.5-.2-.9-.2-1.7c0-.3 0-.6 0-.7c.1-.7 .3-1.1 .8-1.4c.2-.1 .5-.1 .7-.1q.1 0 .2 0Z" class="ga"/>
<path d="M206 189.9c0-.1 0-.7 0-1.4c0-.6 0-1.3 0-1.3c.1-.5 .2-.8 .5-1.1c.3-.3 .5-.4 1-.4c.5 0 .7 .2 .8 .7c0 .1 0 .3 0 1.8c0 .9 0 1.6 0 1.6c0 .2-.3 .2-.6 .2h-.3v.6h.1c.1 0 1.1 0 1.3 0c.3 0 1.3 0 1.4 0h.1V190h-.4c-.2 0-.4 0-.5-.1c0-.1 0-.7 0-1.4c0-.6 0-1.3 0-1.3c0-.5 .2-.8 .5-1.1c.2-.3 .5-.4 .9-.4c.6 0 .8 .2 .9 .7c0 .1 0 .3 0 1.8c0 .9 0 1.6 0 1.6c0 .2-.3 .2-.7 .2h-.2v.6h.1c.1 0 1 0 1.3 0c.3 0 1.2 0 1.4 0h.1V190h-.2c-.3 0-.5 0-.6 0c-.1 0-.1-.1-.2-.1c0-.1 0-.6 0-1.6c0-1 0-1.6 0-1.7c-.1-.9-.6-1.4-1.7-1.4c-.5 0-1 .2-1.4 .6c-.1 .1-.2 .3-.3 .4l-.1-.1c-.1-.6-.7-.9-1.4-.9c-.9 0-1.5 .4-1.9 .9v.1c0 0 0-.1 0-.5v-.5c0 0-.5 0-.9 .1c-.5 0-.9 0-1 0c0 0 0 .1 0 .3v.3h.2c.6 0 .7 .1 .8 .4c0 .1 0 1 0 1.8c0 .9 0 1.7 0 1.8c-.1 .1-.3 .1-.6 .1H204v.6h.1c.2 0 1.1 0 1.4 0c.3 0 1.2 0 1.3 0h.1V190h-.3c-.3 0-.5 0-.6-.1Z" class="g1"/>
<path d="M206 189.9c0-.1 0-.7 0-1.4c0-.6 0-1.3 0-1.3c.1-.5 .2-.8 .5-1.1c.3-.3 .5-.4 1-.4c.5 0 .7 .2 .8 .7c0 .1 0 .3 0 1.8c0 .9 0 1.6 0 1.6c0 .2-.3 .2-.6 .2h-.3v.6h.1c.1 0 1.1 0 1.3 0c.3 0 1.3 0 1.4 0h.1V190h-.4c-.2 0-.4 0-.5-.1c0-.1 0-.7 0-1.4c0-.6 0-1.3 0-1.3c0-.5 .2-.8 .5-1.1c.2-.3 .5-.4 .9-.4c.6 0 .8 .2 .9 .7c0 .1 0 .3 0 1.8c0 .9 0 1.6 0 1.6c0 .2-.3 .2-.7 .2h-.2v.6h.1c.1 0 1 0 1.3 0c.3 0 1.2 0 1.4 0h.1V190h-.2c-.3 0-.5 0-.6 0c-.1 0-.1-.1-.2-.1c0-.1 0-.6 0-1.6c0-1 0-1.6 0-1.7c-.1-.9-.6-1.4-1.7-1.4c-.5 0-1 .2-1.4 .6c-.1 .1-.2 .3-.3 .4l-.1-.1c-.1-.6-.7-.9-1.4-.9c-.9 0-1.5 .4-1.9 .9v.1c0 0 0-.1 0-.5v-.5c0 0-.5 0-.9 .1c-.5 0-.9 0-1 0c0 0 0 .1 0 .3v.3h.2c.6 0 .7 .1 .8 .4c0 .1 0 1 0 1.8c0 .9 0 1.7 0 1.8c-.1 .1-.3 .1-.6 .1H204v.6h.1c.2 0 1.1 0 1.4 0c.3 0 1.2 0 1.3 0h.1V190h-.3c-.3 0-.5 0-.6-.1Z" class="ga"/>
<path d="M214.3 192.4h-.2v.5h.1c.1 0 1.1 0 1.3 0c.3 0 1.3 0 1.4 0h.1v-.5h-.2c-.2 0-.5 0-.6 0c0-.1-.1-.1-.1-.2c0 0 0-.4 0-1.1v-1l.1 .1c.4 .3 .9 .5 1.4 .5c.3 0 .5 0 .8-.1c.9-.4 1.6-1.2 1.8-2.2c0-.1 0-.3 0-.4c0-1.5-.9-2.5-2-2.8c-.1 0-.2 0-.4 0c-.7 0-1.2 .2-1.7 .6H216v-.6c0 0-.5 0-1 .1c-.5 0-.9 0-.9 0c0 0 0 .1 0 .3v.3h.2c.5 0 .7 .1 .7 .4c0 .1 0 1.5 0 3c0 1.5 0 2.9 0 2.9c-.1 .2-.3 .2-.5 .2m4.5-4.5c0 .8-.2 1.5-.7 1.9c-.2 .3-.5 .5-.9 .5c-.6 0-1.1-.4-1.3-.9v-2.9c.3-.4 .7-.8 1.5-.8c0 0 .1 0 .1 0c.7 .1 1.3 1.1 1.3 2.2Z" class="g1"/>
<path d="M214.3 192.4h-.2v.5h.1c.1 0 1.1 0 1.3 0c.3 0 1.3 0 1.4 0h.1v-.5h-.2c-.2 0-.5 0-.6 0c0-.1-.1-.1-.1-.2c0 0 0-.4 0-1.1v-1l.1 .1c.4 .3 .9 .5 1.4 .5c.3 0 .5 0 .8-.1c.9-.4 1.6-1.2 1.8-2.2c0-.1 0-.3 0-.4c0-1.5-.9-2.5-2-2.8c-.1 0-.2 0-.4 0c-.7 0-1.2 .2-1.7 .6H216v-.6c0 0-.5 0-1 .1c-.5 0-.9 0-.9 0c0 0 0 .1 0 .3v.3h.2c.5 0 .7 .1 .7 .4c0 .1 0 1.5 0 3c0 1.5 0 2.9 0 2.9c-.1 .2-.3 .2-.5 .2m4.5-4.5c0 .8-.2 1.5-.7 1.9c-.2 .3-.5 .5-.9 .5c-.6 0-1.1-.4-1.3-.9v-2.9c.3-.4 .7-.8 1.5-.8c0 0 .1 0 .1 0c.7 .1 1.3 1.1 1.3 2.2Z" class="ga"/>
<g fill="#000" clip-path="url(#c0)">
<use href="#f0_13" transform="matrix(7.9 0 0 7.9 101 217.5)"/>
<use href="#f0_2b" transform="matrix(7.9 0 0 7.9 108.3 217.5)"/>
<use href="#f0_29" transform="matrix(7.9 0 0 7.9 114.7 217.5)"/>
<use href="#f0_2c" transform="matrix(7.9 0 0 7.9 124 217.5)"/>
<use href="#f0_2e" transform="matrix(7.9 0 0 7.9 130.5 217.5)"/>
<use href="#f0_21" transform="matrix(7.9 0 0 7.9 136.3 217.5)"/>
<use href="#f0_2f" transform="matrix(7.9 0 0 7.9 142.9 217.5)"/>
<use href="#f0_2f" transform="matrix(7.9 0 0 7.9 148.8 217.5)"/>
<use href="#f0_2b" transform="matrix(7.9 0 0 7.9 154.7 217.5)"/>
<use href="#f0_2e" transform="matrix(7.9 0 0 7.9 161 217.5)"/>
</g>
<text clip-path="url(#c0)" x="101" y="217.5" class="s0">Compressor </text>
<path d="M38.8 163.7h98.7c.8 0 1.5 .1 2.3 .4c.7 .3 1.4 .8 1.9 1.3c.6 .6 1 1.3 1.3 2c.3 .7 .5 1.5 .5 2.3v28.2c0 .8-.2 1.6-.5 2.3c-.3 .8-.7 1.4-1.3 2c-.5 .5-1.2 1-1.9 1.3c-.8 .3-1.5 .4-2.3 .4H38.8c-.8 0-1.6-.1-2.3-.4c-.8-.3-1.4-.8-2-1.3c-.5-.6-1-1.2-1.3-2c-.3-.7-.4-1.5-.4-2.3V169.7c0-.8 .1-1.6 .4-2.3c.3-.7 .8-1.4 1.3-2c.6-.5 1.2-1 2-1.3c.7-.3 1.5-.4 2.3-.4Z" class="gb"/>
<path d="M38.8 163.7h98.7c.8 0 1.5 .1 2.3 .4c.7 .3 1.4 .8 1.9 1.3c.6 .6 1 1.3 1.3 2c.3 .7 .5 1.5 .5 2.3v28.2c0 .8-.2 1.6-.5 2.3c-.3 .8-.7 1.4-1.3 2c-.5 .5-1.2 1-1.9 1.3c-.8 .3-1.5 .4-2.3 .4H38.8c-.8 0-1.6-.1-2.3-.4c-.8-.3-1.4-.8-2-1.3c-.5-.6-1-1.2-1.3-2c-.3-.7-.4-1.5-.4-2.3V169.7c0-.8 .1-1.6 .4-2.3c.3-.7 .8-1.4 1.3-2c.6-.5 1.2-1 2-1.3c.7-.3 1.5-.4 2.3-.4Z" class="gc"/>
<path d="M58.3 187.1c-.6 0-1.2-.5-1.2-1.2v-1.1c0-.6 .6-1.2 1.2-1.2c.6 0 1.1 .6 1.1 1.2v1.1c0 .7-.5 1.2-1.1 1.2Zm-7.8 0c-.6 0-1.2-.5-1.2-1.2v-1.1c0-.6 .6-1.2 1.2-1.2c.6 0 1.1 .6 1.1 1.2v1.1c0 .7-.5 1.2-1.1 1.2Z" class="gd"/>
<path d="M61.8 196.8H46.9c-2.5 0-4.6-2.1-4.6-4.6v-4.6c0-6.7 5.4-12.1 12.1-12.1c6.7 0 12.1 5.4 12.1 12.1v4.5c0 2.6-2.1 4.7-4.7 4.7Zm-7.4-19c-5.4 0-9.8 4.4-9.8 9.8v4.5c0 1.3 1.1 2.4 2.3 2.4h15c1.2 0 2.3-1.1 2.3-2.4v-4.5c-.1-5.4-4.4-9.8-9.8-9.8Z" class="gd"/>
<path d="M48.9 178.8c-.6 .3-1.3 .2-1.6-.4L44.7 174c-.3-.6-.2-1.3 .4-1.6c.5-.3 1.3-.2 1.6 .4l2.6 4.4c.3 .6 .1 1.3-.4 1.6Z" class="gd"/>
<path d="M43.6 174.4c.2 .3 .4 .5 .6 .7c.3 .2 .5 .3 .8 .4c.3 .1 .6 .1 .9 0c.3 0 .6-.1 .9-.3c.2-.1 .5-.3 .7-.6c.1-.2 .3-.5 .3-.8c.1-.3 .1-.6 .1-.9c0-.3-.1-.6-.3-.8c-.1-.3-.3-.5-.6-.7c-.2-.2-.5-.3-.8-.4c-.3-.1-.6-.1-.9-.1c-.3 .1-.6 .2-.9 .3c-.2 .2-.4 .4-.6 .6c-.2 .3-.3 .6-.4 .8c-.1 .3-.1 .6-.1 1c.1 .3 .2 .5 .3 .8Z" class="gd"/>
<path d="M60.2 178.8c.6 .3 1.3 .2 1.6-.4l2.6-4.4c.3-.6 .2-1.3-.4-1.6c-.5-.3-1.3-.2-1.6 .4l-2.6 4.4c-.3 .6-.1 1.3 .4 1.6Z" class="gd"/>
<path d="M62.3 175.2c.3 .2 .6 .3 .9 .3c.3 .1 .6 0 .9 0c.3-.1 .5-.2 .8-.4c.2-.2 .4-.4 .6-.7c.1-.3 .2-.6 .3-.9c0-.3 0-.6-.1-.9c-.1-.3-.2-.5-.4-.8c-.2-.2-.4-.4-.7-.6c-.2-.1-.5-.2-.8-.3c-.3 0-.6 0-.9 .1c-.3 .1-.6 .2-.8 .4c-.3 .2-.5 .4-.6 .7c-.2 .2-.3 .5-.3 .8c-.1 .3 0 .6 0 .9c.1 .3 .3 .6 .4 .8c.2 .3 .4 .5 .7 .6Z" class="gd"/>
<path d="M56.7 192.7H52.1c-.7 0-1.2-.5-1.2-1.2c0-.6 .5-1.1 1.2-1.1h4.6c.6 0 1.2 .5 1.2 1.1c0 .7-.6 1.2-1.2 1.2Z" class="gd"/>
<path d="M55.8 174.2c-.3 0-.6-.1-.9-.4l-.9-1l-.6 .9c-.2 .3-.6 .5-.9 .5H50.4c-.6 0-1.1-.5-1.1-1.2c0-.6 .5-1.1 1.1-1.1h1.5l1.1-1.6c.2-.3 .5-.5 .9-.5c.3-.1 .7 .1 .9 .3l1.5 1.8l2.3-.1c.6 0 1.2 .5 1.2 1.2c0 .6-.6 1.1-1.2 1.1l-2.8 .1Z" class="gd"/>
<g fill="#000" clip-path="url(#c0)">
<use href="#f0_1c" transform="matrix(10.5 0 0 10.5 86.7 191.4)"/>
<use href="#f0_1c" transform="matrix(10.5 0 0 10.5 95.6 191.4)"/>
<use href="#f0_1d" transform="matrix(10.5 0 0 10.5 104.5 191.4)"/>
</g>
<text clip-path="url(#c0)" x="86.7" y="191.4" class="s1">LLM </text>
<path d="M32.5 128.4v12.8" class="ge"/>
<path d="M32.5 146.4l-3.5-7l3.5 1.8l3.6-1.8l-3.6 7Z" class="g1"/>
<path d="M32.5 146.4l-3.5-7l3.5 1.8l3.6-1.8l-3.6 7Zm80.8-18v12.8" class="ge"/>
<path d="M113.3 146.4l-3.5-7l3.5 1.8l3.5-1.8l-3.5 7Z" class="g1"/>
<path d="M113.3 146.4l-3.5-7l3.5 1.8l3.5-1.8l-3.5 7Zm120.6-18v12.8" class="ge"/>
<path d="M233.9 146.4l-3.5-7l3.5 1.8l3.6-1.8l-3.6 7Z" class="g1"/>
<path d="M233.9 146.4l-3.5-7l3.5 1.8l3.6-1.8l-3.6 7Zm-82.3 40.4h9m-4.5-5l.1 10.1M32.5 234.1v12.8" class="ge"/>
<path d="M32.5 252.1l-3.5-7l3.5 1.8l3.6-1.8l-3.6 7Z" class="g1"/>
<path d="M32.5 252.1l-3.5-7l3.5 1.8l3.6-1.8l-3.6 7Zm80.8-18v12.8" class="ge"/>
<path d="M113.3 252.1l-3.5-7l3.5 1.8l3.5-1.8l-3.5 7Z" class="g1"/>
<path d="M113.3 252.1l-3.5-7l3.5 1.8l3.5-1.8l-3.5 7Zm120.7-18v12.8" class="ge"/>
<path d="M234 252.1l-3.5-7l3.5 1.8l3.5-1.8l-3.5 7Z" class="g1"/>
<path d="M234 252.1l-3.5-7l3.5 1.8l3.5-1.8l-3.5 7Z" class="ge"/>
<path d="M12.1 259.3H53.4c.6 0 1.2 .1 1.7 .4c.6 .2 1.1 .5 1.5 .9c.4 .5 .8 1 1 1.5c.2 .6 .3 1.1 .3 1.7V285c0 .6-.1 1.2-.3 1.7c-.2 .6-.6 1.1-1 1.5c-.4 .4-.9 .7-1.5 1c-.5 .2-1.1 .3-1.7 .3H12.1c-.6 0-1.2-.1-1.7-.3c-.6-.3-1.1-.6-1.5-1c-.4-.4-.7-.9-1-1.5c-.2-.5-.3-1.1-.3-1.7V263.8c0-.6 .1-1.1 .3-1.7c.3-.5 .6-1 1-1.5c.4-.4 .9-.7 1.5-.9c.5-.3 1.1-.4 1.7-.4Z" class="g5"/>
<path d="M12.1 259.3H53.4c.6 0 1.2 .1 1.7 .4c.6 .2 1.1 .5 1.5 .9c.4 .5 .8 1 1 1.5c.2 .6 .3 1.1 .3 1.7V285c0 .6-.1 1.2-.3 1.7c-.2 .6-.6 1.1-1 1.5c-.4 .4-.9 .7-1.5 1c-.5 .2-1.1 .3-1.7 .3H12.1c-.6 0-1.2-.1-1.7-.3c-.6-.3-1.1-.6-1.5-1c-.4-.4-.7-.9-1-1.5c-.2-.5-.3-1.1-.3-1.7V263.8c0-.6 .1-1.1 .3-1.7c.3-.5 .6-1 1-1.5c.4-.4 .9-.7 1.5-.9c.5-.3 1.1-.4 1.7-.4Z" class="g6"/>
<g fill="#000" clip-path="url(#c0)">
<use href="#f0_1b" transform="matrix(7.9 0 0 7.9 20.1 278.9)"/>
<use href="#f0_1m" transform="matrix(7.9 0 0 7.9 27.5 278.9)"/>
<use href="#f0_l" transform="matrix(7.9 0 0 7.9 39 278.9)"/>
</g>
<text clip-path="url(#c0)" x="20.1" y="278.9" class="s0">KV 1 </text>
<path d="M91.8 259.3h41.3c.6 0 1.2 .1 1.7 .4c.6 .2 1.1 .5 1.5 .9c.4 .5 .7 1 1 1.5c.2 .6 .3 1.1 .3 1.7V285c0 .6-.1 1.2-.3 1.7c-.3 .6-.6 1.1-1 1.5c-.4 .4-.9 .7-1.5 1c-.5 .2-1.1 .3-1.7 .3H91.8c-.6 0-1.2-.1-1.7-.3c-.6-.3-1.1-.6-1.5-1c-.4-.4-.7-.9-1-1.5c-.2-.5-.3-1.1-.3-1.7V263.8c0-.6 .1-1.1 .3-1.7c.3-.5 .6-1 1-1.5c.4-.4 .9-.7 1.5-.9c.5-.3 1.1-.4 1.7-.4Z" class="g5"/>
<path d="M91.8 259.3h41.3c.6 0 1.2 .1 1.7 .4c.6 .2 1.1 .5 1.5 .9c.4 .5 .7 1 1 1.5c.2 .6 .3 1.1 .3 1.7V285c0 .6-.1 1.2-.3 1.7c-.3 .6-.6 1.1-1 1.5c-.4 .4-.9 .7-1.5 1c-.5 .2-1.1 .3-1.7 .3H91.8c-.6 0-1.2-.1-1.7-.3c-.6-.3-1.1-.6-1.5-1c-.4-.4-.7-.9-1-1.5c-.2-.5-.3-1.1-.3-1.7V263.8c0-.6 .1-1.1 .3-1.7c.3-.5 .6-1 1-1.5c.4-.4 .9-.7 1.5-.9c.5-.3 1.1-.4 1.7-.4Z" class="g6"/>
<g fill="#000" clip-path="url(#c0)">
<use href="#f0_1b" transform="matrix(7.9 0 0 7.9 98.7 278.9)"/>
<use href="#f0_1m" transform="matrix(7.9 0 0 7.9 106.1 278.9)"/>
<use href="#f0_m" transform="matrix(7.9 0 0 7.9 117.5 278.9)"/>
</g>
<text clip-path="url(#c0)" x="98.7" y="278.9" class="s0">KV 2 </text>
<path d="M213.5 259.3h41.2c.6 0 1.2 .1 1.8 .4c.5 .2 1 .5 1.5 .9c.4 .5 .7 1 .9 1.5c.3 .6 .4 1.1 .4 1.7V285c0 .6-.1 1.2-.4 1.7c-.2 .6-.5 1.1-.9 1.5c-.5 .4-1 .7-1.5 1c-.6 .2-1.2 .3-1.8 .3H213.5c-.6 0-1.2-.1-1.8-.3c-.5-.3-1-.6-1.4-1c-.5-.4-.8-.9-1-1.5c-.2-.5-.4-1.1-.4-1.7V263.8c0-.6 .2-1.1 .4-1.7c.2-.5 .5-1 1-1.5c.4-.4 .9-.7 1.4-.9c.6-.3 1.2-.4 1.8-.4Z" class="g5"/>
<path d="M213.5 259.3h41.2c.6 0 1.2 .1 1.8 .4c.5 .2 1 .5 1.5 .9c.4 .5 .7 1 .9 1.5c.3 .6 .4 1.1 .4 1.7V285c0 .6-.1 1.2-.4 1.7c-.2 .6-.5 1.1-.9 1.5c-.5 .4-1 .7-1.5 1c-.6 .2-1.2 .3-1.8 .3H213.5c-.6 0-1.2-.1-1.8-.3c-.5-.3-1-.6-1.4-1c-.5-.4-.8-.9-1-1.5c-.2-.5-.4-1.1-.4-1.7V263.8c0-.6 .2-1.1 .4-1.7c.2-.5 .5-1 1-1.5c.4-.4 .9-.7 1.4-.9c.6-.3 1.2-.4 1.8-.4Z" class="g6"/>
<g fill="#000" clip-path="url(#c0)">
<use href="#f0_1b" transform="matrix(7.9 0 0 7.9 221 278.9)"/>
<use href="#f0_1m" transform="matrix(7.9 0 0 7.9 228.4 278.9)"/>
<use href="#f0_2a" transform="matrix(7.9 0 0 7.9 239.9 278.9)"/>
</g>
<text clip-path="url(#c0)" x="221" y="278.9" class="s0">KV n </text>
<path d="M166.7 274.4c0 .4-.1 .8-.3 1.2c-.1 .3-.3 .7-.6 1c-.3 .2-.6 .5-1 .6c-.4 .2-.8 .2-1.2 .2c-.4 0-.7 0-1.1-.2c-.4-.1-.7-.4-1-.6c-.3-.3-.5-.7-.7-1c-.1-.4-.2-.8-.2-1.2c0-.4 .1-.8 .2-1.1c.2-.4 .4-.7 .7-1c.3-.3 .6-.5 1-.7c.4-.1 .7-.2 1.1-.2c.4 0 .8 .1 1.2 .2c.4 .2 .7 .4 1 .7c.3 .3 .5 .6 .6 1c.2 .3 .3 .7 .3 1.1Z" class="g1"/>
<path d="M175.7 274.4c0 .4-.1 .8-.2 1.2c-.2 .3-.4 .7-.7 1c-.2 .2-.6 .5-.9 .6c-.4 .2-.8 .2-1.2 .2c-.4 0-.8 0-1.2-.2c-.3-.1-.7-.4-.9-.6c-.3-.3-.5-.7-.7-1c-.1-.4-.2-.8-.2-1.2c0-.4 .1-.8 .2-1.1c.2-.4 .4-.7 .7-1c.2-.3 .6-.5 .9-.7c.4-.1 .8-.2 1.2-.2c.4 0 .8 .1 1.2 .2c.3 .2 .7 .4 .9 .7c.3 .3 .5 .6 .7 1c.1 .3 .2 .7 .2 1.1Z" class="g1"/>
<path d="M184.8 274.4c0 .4-.1 .8-.3 1.2c-.1 .3-.3 .7-.6 1c-.3 .2-.6 .5-1 .6c-.4 .2-.7 .2-1.1 .2c-.4 0-.8 0-1.2-.2c-.4-.1-.7-.4-1-.6c-.3-.3-.5-.7-.6-1c-.2-.4-.3-.8-.3-1.2c0-.4 .1-.8 .3-1.1c.1-.4 .3-.7 .6-1c.3-.3 .6-.5 1-.7c.4-.1 .8-.2 1.2-.2c.4 0 .7 .1 1.1 .2c.4 .2 .7 .4 1 .7c.3 .3 .5 .6 .6 1c.2 .3 .3 .7 .3 1.1Z" class="g1"/>
<path clip-path="url(#c2)" d="M477.1 139.3c.1 .2 .1 .4 .2 .6c0 .2 .1 .4 .1 .7c0 .2-.1 .4-.2 .7c-.1 .2-.2 .4-.4 .6c-.2 .2-.4 .4-.6 .6c-.1 .1-.3 .3-.4 .4c-.1 .1-.3 .3-.4 .4l-5-5c.3-.2 .5-.4 .8-.7c.3-.3 .5-.5 .7-.7c.3-.2 .5-.3 .8-.4c.3 0 .5-.1 .8-.1c.2 0 .5 .1 .7 .1c.3 .1 .5 .2 .6 .3c.4 .2 .8 .5 1.3 1c.4 .5 .8 1 1 1.5Zm-20.6 13c.1-.1 .3-.3 .7-.7c.4-.4 .9-.9 1.5-1.5l1.9-2l2.2-2.1l5.7-5.7l4.9 5l-5.7 5.7l-2.1 2.2c-.7 .6-1.3 1.3-1.9 1.9c-.6 .5-1 1-1.4 1.4c-.4 .4-.6 .6-.7 .6c-.2 .2-.4 .3-.6 .5c-.2 .2-.5 .3-.7 .4c-.3 .2-.6 .3-1.1 .5c-.5 .2-1 .4-1.5 .5c-.5 .2-1 .3-1.5 .5c-.4 .1-.8 .2-1 .2c-.5 .1-.8 0-1-.2c-.1-.2-.2-.5-.1-1c0-.2 .1-.6 .2-1.1c.2-.4 .3-.9 .5-1.4c.1-.5 .3-1 .4-1.4c.1-.5 .3-.8 .4-.9c.1-.3 .2-.5 .3-.7c.1-.2 .3-.4 .6-.7Zm8.8 5h2.4v2.4h-2.4v-2.4Zm4.8 0h2.4v2.4h-2.4v-2.4Zm4.9 0h2.3v2.4H475v-2.4Z" class="gf"/>
<path d="M333.4 193.9h38.3c.8 0 1.5 .1 2.3 .4c.7 .3 1.4 .8 1.9 1.3c.6 .6 1 1.3 1.4 2c.3 .7 .4 1.5 .4 2.3v28.2c0 .8-.1 1.6-.4 2.3c-.4 .8-.8 1.4-1.4 2c-.5 .5-1.2 1-1.9 1.3c-.8 .3-1.5 .4-2.3 .4H333.4c-.8 0-1.6-.1-2.3-.4c-.7-.3-1.4-.8-2-1.3c-.5-.6-1-1.2-1.3-2c-.3-.7-.4-1.5-.4-2.3V199.9c0-.8 .1-1.6 .4-2.3c.3-.7 .8-1.4 1.3-2c.6-.5 1.3-1 2-1.3c.7-.3 1.5-.4 2.3-.4Z" class="g7"/>
<path d="M333.4 193.9h38.3c.8 0 1.5 .1 2.3 .4c.7 .3 1.4 .8 1.9 1.3c.6 .6 1 1.3 1.4 2c.3 .7 .4 1.5 .4 2.3v28.2c0 .8-.1 1.6-.4 2.3c-.4 .8-.8 1.4-1.4 2c-.5 .5-1.2 1-1.9 1.3c-.8 .3-1.5 .4-2.3 .4H333.4c-.8 0-1.6-.1-2.3-.4c-.7-.3-1.4-.8-2-1.3c-.5-.6-1-1.2-1.3-2c-.3-.7-.4-1.5-.4-2.3V199.9c0-.8 .1-1.6 .4-2.3c.3-.7 .8-1.4 1.3-2c.6-.5 1.3-1 2-1.3c.7-.3 1.5-.4 2.3-.4Z" class="g8"/>
<path d="M343.3 218.2h.2v-.8h-.4c-.3 0-.7 0-.9 0c-.6 0-.7-.1-.8-.2v-1.6h.2c1.8-.2 3.3-1.1 3.9-2.2c.2-.4 .2-.7 .2-1.1c0-.4 0-.6-.2-1c-.6-1.1-2.1-2-3.9-2.2l-.2-.1v-1.5c.1-.2 .2-.2 .8-.2c.2 0 .6 0 .9 0h.4v-.8h-.2c-.3 0-2.2 0-2.8 0c-.6 0-2.5 0-2.8 0h-.2v.8h.4c.3 0 .7 0 .8 0q.7 0 1 .2V209h-.1c0 .1-.1 .1-.3 .1c-.8 .1-1.6 .4-2.3 .7c-.9 .6-1.5 1.3-1.7 2.1c-.1 .1-.1 .3-.1 .4c0 .2 0 .4 .1 .5c.2 .8 .8 1.5 1.7 2.1c.7 .3 1.5 .6 2.3 .7c.2 0 .3 0 .3 0h.1v1.6c-.3 .1-.3 .2-1 .2c-.1 0-.5 0-.8 0h-.4v.8h.2c.3 0 2.2 0 2.8 0c.6 0 2.5 0 2.8 0m-6.1-5.9c0-1.5 .6-2.2 1.9-2.5c.2-.1 .4-.1 .5-.1h.1V215h-.1c-1.6-.3-2.4-1-2.4-2.7m4.2 2.7h-.1v-5.3h.1c.1 0 .2 0 .3 0c1.4 .3 2.1 1.1 2.1 2.6c0 1.7-.8 2.4-2.4 2.7Z" class="g1"/>
<path d="M343.3 218.2h.2v-.8h-.4c-.3 0-.7 0-.9 0c-.6 0-.7-.1-.8-.2v-1.6h.2c1.8-.2 3.3-1.1 3.9-2.2c.2-.4 .2-.7 .2-1.1c0-.4 0-.6-.2-1c-.6-1.1-2.1-2-3.9-2.2l-.2-.1v-1.5c.1-.2 .2-.2 .8-.2c.2 0 .6 0 .9 0h.4v-.8h-.2c-.3 0-2.2 0-2.8 0c-.6 0-2.5 0-2.8 0h-.2v.8h.4c.3 0 .7 0 .8 0q.7 0 1 .2V209h-.1c0 .1-.1 .1-.3 .1c-.8 .1-1.6 .4-2.3 .7c-.9 .6-1.5 1.3-1.7 2.1c-.1 .1-.1 .3-.1 .4c0 .2 0 .4 .1 .5c.2 .8 .8 1.5 1.7 2.1c.7 .3 1.5 .6 2.3 .7c.2 0 .3 0 .3 0h.1v1.6c-.3 .1-.3 .2-1 .2c-.1 0-.5 0-.8 0h-.4v.8h.2c.3 0 2.2 0 2.8 0c.6 0 2.5 0 2.8 0m-6.1-5.9c0-1.5 .6-2.2 1.9-2.5c.2-.1 .4-.1 .5-.1h.1V215h-.1c-1.6-.3-2.4-1-2.4-2.7m4.2 2.7h-.1v-5.3h.1c.1 0 .2 0 .3 0c1.4 .3 2.1 1.1 2.1 2.6c0 1.7-.8 2.4-2.4 2.7Z" class="g9"/>
<path d="M351.3 215.8l-.2-.1c-.3-.2-.7-.3-1.1-.3c-.8 0-1.4 .4-1.8 .9c-.2 .2-.3 .5-.3 .9c0 .6 .2 .9 .5 1.2c-.2 .3-.3 .6-.3 1.1c0 .4 .2 .8 .4 1l-.1 .1c-.2 0-.3 .1-.4 .2c-.2 .3-.4 .5-.4 .9c0 .1 0 .2 0 .3c.2 .3 .5 .7 1 .9c.5 .3 1 .4 1.7 .4c.8 0 1.3-.1 1.7-.4c.5-.2 .9-.6 1-.9c0-.1 0-.2 0-.3c0-.6-.2-1-.5-1.2c-.2-.3-.7-.5-1.2-.5c-.3-.1-.4-.1-1.3-.1c-1 0-.9 0-1.1-.1c-.1-.1-.3-.4-.3-.6c0-.2 .1-.4 .2-.5c.3 .2 .7 .3 1.2 .3c.7 0 1.4-.3 1.7-.8c.2-.3 .3-.5 .3-1c0-.5-.1-.7-.4-1q0-.1 0-.1c0 0 0-.1 .1-.1c.1-.1 .3-.2 .5-.2c.1 0 .1-.1 .1-.1q0 .1 0 .1c0 0 0 .2 0 .2c0 .3 .2 .4 .4 .4c.3 0 .5-.2 .5-.4c0-.4-.3-.7-.7-.7c-.5 0-.9 .2-1.2 .5m-2.3 1.4c0-.2 0-.5 0-.6c.1-.4 .5-.7 1-.7c.5 0 .8 .3 .9 .7c0 .1 0 .4 0 .6c0 .3 0 .5 0 .6c-.1 .5-.4 .8-.9 .8c-.8 0-1-.6-1-1.4m2.8 3.9c.2 .1 .4 .3 .4 .6c0 .1 0 .2-.1 .2c-.1 .4-.6 .7-1.2 .9c-.2 0-.3 0-.6 0c-.3 0-.4 0-.6 0c-.6-.2-1.1-.5-1.2-.9c-.1 0-.1-.1-.1-.2c0-.4 .2-.7 .5-.8q.2-.1 1-.1h.4c.7 0 1.1 0 1.5 .3Z" class="g1"/>
<path d="M351.3 215.8l-.2-.1c-.3-.2-.7-.3-1.1-.3c-.8 0-1.4 .4-1.8 .9c-.2 .2-.3 .5-.3 .9c0 .6 .2 .9 .5 1.2c-.2 .3-.3 .6-.3 1.1c0 .4 .2 .8 .4 1l-.1 .1c-.2 0-.3 .1-.4 .2c-.2 .3-.4 .5-.4 .9c0 .1 0 .2 0 .3c.2 .3 .5 .7 1 .9c.5 .3 1 .4 1.7 .4c.8 0 1.3-.1 1.7-.4c.5-.2 .9-.6 1-.9c0-.1 0-.2 0-.3c0-.6-.2-1-.5-1.2c-.2-.3-.7-.5-1.2-.5c-.3-.1-.4-.1-1.3-.1c-1 0-.9 0-1.1-.1c-.1-.1-.3-.4-.3-.6c0-.2 .1-.4 .2-.5c.3 .2 .7 .3 1.2 .3c.7 0 1.4-.3 1.7-.8c.2-.3 .3-.5 .3-1c0-.5-.1-.7-.4-1q0-.1 0-.1c0 0 0-.1 .1-.1c.1-.1 .3-.2 .5-.2c.1 0 .1-.1 .1-.1q0 .1 0 .1c0 0 0 .2 0 .2c0 .3 .2 .4 .4 .4c.3 0 .5-.2 .5-.4c0-.4-.3-.7-.7-.7c-.5 0-.9 .2-1.2 .5m-2.3 1.4c0-.2 0-.5 0-.6c.1-.4 .5-.7 1-.7c.5 0 .8 .3 .9 .7c0 .1 0 .4 0 .6c0 .3 0 .5 0 .6c-.1 .5-.4 .8-.9 .8c-.8 0-1-.6-1-1.4m2.8 3.9c.2 .1 .4 .3 .4 .6c0 .1 0 .2-.1 .2c-.1 .4-.6 .7-1.2 .9c-.2 0-.3 0-.6 0c-.3 0-.4 0-.6 0c-.6-.2-1.1-.5-1.2-.9c-.1 0-.1-.1-.1-.2c0-.4 .2-.7 .5-.8q.2-.1 1-.1h.4c.7 0 1.1 0 1.5 .3Z" class="ga"/>
<path d="M354.8 217.1c.3 0 .6-.3 .6-.7c0-.2-.1-.4-.3-.5c0-.1 .7-.1 .9-.1c.6 0 1 .3 1.1 .9c.1 .1 .1 .3 .1 .6v.2H357c-.8 .1-1.5 .2-2.1 .5c-.3 .1-.5 .2-.7 .4c-.2 .3-.4 .6-.4 1.1c0 .1 0 .3 .1 .4c.2 .6 .9 1 1.8 1c.5 0 1-.2 1.3-.5c.1-.1 .3-.2 .4-.3c.1 .4 .4 .8 .8 .8c.6 0 1-.4 1.1-.8q0-.1 0-.6V219h-.4v.5c0 .4-.1 .5-.1 .6c-.1 .1-.1 .2-.2 .2c-.1 0-.2-.1-.3-.2q-.1-.1-.1-1.7c0-1.6 0-1.5 0-1.7c-.3-.8-1.1-1.4-2.2-1.4c-.9 0-1.6 .3-1.8 .7c0 .2-.1 .3-.1 .4c0 .4 .3 .7 .7 .7m2.4 1.6c0 .6 0 .7 0 .8c-.2 .5-.6 1-1.3 1c-.6 0-1-.5-1-1c0-.2 0-.4 .1-.5c.3-.6 1-1 2.1-1q.1 0 .1 0c0 0 0 .3 0 .7Z" class="g1"/>
<path d="M354.8 217.1c.3 0 .6-.3 .6-.7c0-.2-.1-.4-.3-.5c0-.1 .7-.1 .9-.1c.6 0 1 .3 1.1 .9c.1 .1 .1 .3 .1 .6v.2H357c-.8 .1-1.5 .2-2.1 .5c-.3 .1-.5 .2-.7 .4c-.2 .3-.4 .6-.4 1.1c0 .1 0 .3 .1 .4c.2 .6 .9 1 1.8 1c.5 0 1-.2 1.3-.5c.1-.1 .3-.2 .4-.3c.1 .4 .4 .8 .8 .8c.6 0 1-.4 1.1-.8q0-.1 0-.6V219h-.4v.5c0 .4-.1 .5-.1 .6c-.1 .1-.1 .2-.2 .2c-.1 0-.2-.1-.3-.2q-.1-.1-.1-1.7c0-1.6 0-1.5 0-1.7c-.3-.8-1.1-1.4-2.2-1.4c-.9 0-1.6 .3-1.8 .7c0 .2-.1 .3-.1 .4c0 .4 .3 .7 .7 .7m2.4 1.6c0 .6 0 .7 0 .8c-.2 .5-.6 1-1.3 1c-.6 0-1-.5-1-1c0-.2 0-.4 .1-.5c.3-.6 1-1 2.1-1q.1 0 .1 0c0 0 0 .3 0 .7Z" class="ga"/>
<path d="M361.1 213.5c0 .7-.2 1.4-.6 1.8c-.2 .2-.5 .3-.7 .4h-.2v.4h1v1.7c0 1.1 0 1.7 0 1.8c.1 .8 .6 1.3 1.5 1.3c.8 0 1.2-.5 1.3-1.1c.1-.2 .1-.3 .1-.8v-.4H363v.4c0 .3 0 .5 0 .6c-.1 .5-.3 .8-.7 .8c-.2 0-.5-.1-.6-.4c-.1-.3-.1-.2-.1-2.1v-1.8h1.7v-.6h-1.7v-2.2h-.5v.2Z" class="g1"/>
<path d="M361.1 213.5c0 .7-.2 1.4-.6 1.8c-.2 .2-.5 .3-.7 .4h-.2v.4h1v1.7c0 1.1 0 1.7 0 1.8c.1 .8 .6 1.3 1.5 1.3c.8 0 1.2-.5 1.3-1.1c.1-.2 .1-.3 .1-.8v-.4H363v.4c0 .3 0 .5 0 .6c-.1 .5-.3 .8-.7 .8c-.2 0-.5-.1-.6-.4c-.1-.3-.1-.2-.1-2.1v-1.8h1.7v-.6h-1.7v-2.2h-.5v.2Z" class="ga"/>
<path d="M369.2 217.8c0-1.5-.7-2.5-2.3-2.5c0 0-.1 0-.1 .1c-1.3 .1-2.3 1.2-2.3 2.7c0 .4 0 .6 .1 .9c.4 1 1.1 1.7 2.1 1.9c.1 0 .3 0 .5 0c1 0 1.7-.7 2-1.4q0-.1 0-.2c0-.1-.1-.1-.2-.1q-.2 0-.2 0q-.1 .1-.1 .2c-.1 .2-.2 .5-.4 .6c-.2 .3-.4 .4-.9 .4c-.7 0-1.2-.4-1.5-.9c-.1-.3-.2-.8-.2-1.3V218h3.4q.1-.1 .1-.2m-1-.4v.1h-2.5c.1-.5 .1-.9 .3-1.1c.3-.4 .6-.6 1.1-.6q.1 0 .2 0c.6 .2 .8 .8 .9 1.6Z" class="g1"/>
<path d="M369.2 217.8c0-1.5-.7-2.5-2.3-2.5c0 0-.1 0-.1 .1c-1.3 .1-2.3 1.2-2.3 2.7c0 .4 0 .6 .1 .9c.4 1 1.1 1.7 2.1 1.9c.1 0 .3 0 .5 0c1 0 1.7-.7 2-1.4q0-.1 0-.2c0-.1-.1-.1-.2-.1q-.2 0-.2 0q-.1 .1-.1 .2c-.1 .2-.2 .5-.4 .6c-.2 .3-.4 .4-.9 .4c-.7 0-1.2-.4-1.5-.9c-.1-.3-.2-.8-.2-1.3V218h3.4q.1-.1 .1-.2m-1-.4v.1h-2.5c.1-.5 .1-.9 .3-1.1c.3-.4 .6-.6 1.1-.6q.1 0 .2 0c.6 .2 .8 .8 .9 1.6Z" class="ga"/>
<path d="M414 193.9h68.4c.8 0 1.6 .1 2.3 .4c.8 .3 1.4 .8 2 1.3c.5 .6 1 1.3 1.3 2c.3 .7 .5 1.5 .5 2.3v28.2c0 .8-.2 1.6-.5 2.3c-.3 .8-.8 1.4-1.3 2c-.6 .5-1.2 1-2 1.3c-.7 .3-1.5 .4-2.3 .4H414c-.8 0-1.6-.1-2.4-.4c-.7-.3-1.4-.8-1.9-1.3c-.6-.6-1-1.2-1.3-2c-.3-.7-.5-1.5-.5-2.3V199.9c0-.8 .2-1.6 .5-2.3c.3-.7 .7-1.4 1.3-2c.5-.5 1.2-1 1.9-1.3c.8-.3 1.6-.4 2.4-.4Z" class="gb"/>
<path d="M414 193.9h68.4c.8 0 1.6 .1 2.3 .4c.8 .3 1.4 .8 2 1.3c.5 .6 1 1.3 1.3 2c.3 .7 .5 1.5 .5 2.3v28.2c0 .8-.2 1.6-.5 2.3c-.3 .8-.8 1.4-1.3 2c-.6 .5-1.2 1-2 1.3c-.7 .3-1.5 .4-2.3 .4H414c-.8 0-1.6-.1-2.4-.4c-.7-.3-1.4-.8-1.9-1.3c-.6-.6-1-1.2-1.3-2c-.3-.7-.5-1.5-.5-2.3V199.9c0-.8 .2-1.6 .5-2.3c.3-.7 .7-1.4 1.3-2c.5-.5 1.2-1 1.9-1.3c.8-.3 1.6-.4 2.4-.4Z" class="gc"/>
<path d="M431.4 216.8c-.6 0-1-.4-1-1v-1c0-.5 .4-1 1-1c.5 0 1 .5 1 1v1c0 .6-.5 1-1 1Zm-6.8 0c-.6 0-1-.4-1-1v-1c0-.5 .4-1 1-1c.5 0 1 .5 1 1v1c0 .6-.5 1-1 1Z" class="gd"/>
<path d="M434.5 225.3h-13c-2.2 0-4-1.8-4-4v-4.1c0-5.8 4.7-10.5 10.5-10.5c5.8 0 10.5 4.7 10.5 10.5v4c0 2.3-1.8 4.1-4 4.1ZM428 208.7c-4.7 0-8.5 3.9-8.5 8.5v4c0 1.1 .9 2 2 2h13c1.1 0 2-.9 2-2v-4c0-4.6-3.8-8.5-8.5-8.5Z" class="gd"/>
<path d="M423.2 209.6c-.5 .3-1.1 .2-1.4-.3l-2.3-3.9c-.2-.5-.1-1.1 .4-1.4c.5-.3 1.1-.1 1.4 .4l2.2 3.8c.3 .5 .2 1.1-.3 1.4Z" class="gd"/>
<path d="M418.6 205.8c.1 .2 .3 .4 .5 .6c.2 .1 .5 .2 .7 .3c.3 .1 .6 .1 .8 .1c.3-.1 .5-.2 .8-.3c.2-.1 .4-.3 .5-.5c.2-.2 .3-.5 .4-.7c.1-.3 .1-.6 0-.8c0-.3-.1-.5-.2-.8c-.2-.2-.3-.4-.5-.6c-.3-.1-.5-.2-.7-.3c-.3-.1-.6-.1-.8 0c-.3 0-.5 .1-.8 .2c-.2 .1-.4 .3-.6 .5c-.1 .2-.2 .5-.3 .7c-.1 .3-.1 .6-.1 .8c.1 .3 .2 .5 .3 .8Z" class="gd"/>
<path d="M433.1 209.6c.5 .3 1.1 .2 1.4-.3l2.2-3.9c.3-.5 .1-1.1-.3-1.4c-.5-.3-1.1-.1-1.4 .4l-2.3 3.8c-.3 .5-.1 1.1 .4 1.4Z" class="gd"/>
<path d="M434.9 206.5c.2 .1 .5 .2 .7 .2c.3 .1 .6 .1 .8 0c.3-.1 .5-.2 .7-.3c.2-.2 .4-.4 .5-.6c.2-.3 .3-.5 .3-.8c0-.2 0-.5 0-.8c-.1-.2-.2-.5-.4-.7c-.1-.2-.3-.4-.6-.5c-.2-.1-.5-.2-.7-.3c-.3 0-.5 0-.8 .1c-.3 .1-.5 .2-.7 .3c-.2 .2-.4 .4-.5 .6c-.2 .3-.2 .5-.3 .8c0 .2 0 .5 .1 .8c0 .2 .1 .5 .3 .7c.2 .2 .4 .4 .6 .5Z" class="gd"/>
<path d="M430 221.7h-4c-.6 0-1-.4-1-1c0-.6 .4-1 1-1h4c.6 0 1 .4 1 1c0 .6-.4 1-1 1Z" class="gd"/>
<path d="M429.2 205.6c-.3 0-.5-.1-.7-.3l-.8-.9l-.6 .8c-.1 .2-.5 .4-.8 .4h-1.8c-.5 0-1-.5-1-1c0-.6 .5-1 1-1h1.3l1-1.4c.2-.3 .4-.4 .7-.5c.3 0 .6 .1 .8 .4l1.4 1.4h2c.5 0 1 .5 1 1c0 .6-.5 1-1 1l-2.5 .1Z" class="gd"/>
<g fill="#000" clip-path="url(#c0)">
<use href="#f0_1c" transform="matrix(10.5 0 0 10.5 447.2 220.6)"/>
<use href="#f0_1c" transform="matrix(10.5 0 0 10.5 456 220.6)"/>
<use href="#f0_1d" transform="matrix(10.5 0 0 10.5 464.9 220.6)"/>
</g>
<text clip-path="url(#c0)" x="447.2" y="220.6" class="s1">LLM </text>
<path d="M383.8 214h9m-4.5-5l.1 10m114.3-5h9.1m-4.6-5l.1 10" class="ge"/>
<path d="M525.7 193.9H573c.8 0 1.6 .1 2.3 .4c.8 .3 1.4 .8 2 1.3c.6 .6 1 1.3 1.3 2c.3 .7 .5 1.5 .5 2.3v28.2c0 .8-.2 1.6-.5 2.3c-.3 .8-.7 1.4-1.3 2c-.6 .5-1.2 1-2 1.3c-.7 .3-1.5 .4-2.3 .4H525.7c-.8 0-1.6-.1-2.3-.4c-.8-.3-1.4-.8-2-1.3c-.5-.6-1-1.2-1.3-2c-.3-.7-.4-1.5-.4-2.3V199.9c0-.8 .1-1.6 .4-2.3c.3-.7 .8-1.4 1.3-2c.6-.5 1.2-1 2-1.3c.7-.3 1.5-.4 2.3-.4Z" class="gg"/>
<path d="M525.7 193.9H573c.8 0 1.6 .1 2.3 .4c.8 .3 1.4 .8 2 1.3c.6 .6 1 1.3 1.3 2c.3 .7 .5 1.5 .5 2.3v28.2c0 .8-.2 1.6-.5 2.3c-.3 .8-.7 1.4-1.3 2c-.6 .5-1.2 1-2 1.3c-.7 .3-1.5 .4-2.3 .4H525.7c-.8 0-1.6-.1-2.3-.4c-.8-.3-1.4-.8-2-1.3c-.5-.6-1-1.2-1.3-2c-.3-.7-.4-1.5-.4-2.3V199.9c0-.8 .1-1.6 .4-2.3c.3-.7 .8-1.4 1.3-2c.6-.5 1.2-1 2-1.3c.7-.3 1.5-.4 2.3-.4Z" class="gh"/>
<path d="M534.6 218.2h.2v-.8h-.4c-.3 0-.7 0-.9 0c-.6 0-.7-.1-.9-.2v-1.6h.3c1.8-.2 3.3-1.1 3.9-2.2c.2-.4 .2-.7 .2-1.1c0-.4 0-.6-.2-1c-.6-1.1-2.1-2-3.9-2.2l-.3-.1v-1.5c.2-.2 .3-.2 .9-.2c.2 0 .6 0 .9 0h.4v-.8h-.2c-.3 0-2.3 0-2.8 0c-.6 0-2.5 0-2.9 0h-.2v.8h.5c.3 0 .6 0 .8 0q.7 0 .9 .2V209c0 .1-.1 .1-.3 .1c-.8 .1-1.6 .4-2.3 .7c-1 .6-1.6 1.3-1.7 2.1c-.1 .1-.1 .3-.1 .4c0 .2 0 .4 .1 .5c.1 .8 .7 1.5 1.7 2.1c.7 .3 1.5 .6 2.3 .7c.2 0 .3 0 .3 0v1.6c-.2 .1-.2 .2-.9 .2c-.2 0-.5 0-.8 0h-.5v.8h.2c.4 0 2.3 0 2.9 0c.5 0 2.5 0 2.8 0m-6.1-5.9c0-1.5 .6-2.2 1.9-2.5c.1-.1 .4-.1 .5-.1V215c-1.6-.3-2.4-1-2.4-2.7m4.2 2.7h-.1v-5.3h.1c0 0 .2 0 .3 0c1.3 .3 2 1.1 2 2.6c0 1.7-.8 2.4-2.3 2.7Z" class="g1"/>
<path d="M534.6 218.2h.2v-.8h-.4c-.3 0-.7 0-.9 0c-.6 0-.7-.1-.9-.2v-1.6h.3c1.8-.2 3.3-1.1 3.9-2.2c.2-.4 .2-.7 .2-1.1c0-.4 0-.6-.2-1c-.6-1.1-2.1-2-3.9-2.2l-.3-.1v-1.5c.2-.2 .3-.2 .9-.2c.2 0 .6 0 .9 0h.4v-.8h-.2c-.3 0-2.3 0-2.8 0c-.6 0-2.5 0-2.9 0h-.2v.8h.5c.3 0 .6 0 .8 0q.7 0 .9 .2V209c0 .1-.1 .1-.3 .1c-.8 .1-1.6 .4-2.3 .7c-1 .6-1.6 1.3-1.7 2.1c-.1 .1-.1 .3-.1 .4c0 .2 0 .4 .1 .5c.1 .8 .7 1.5 1.7 2.1c.7 .3 1.5 .6 2.3 .7c.2 0 .3 0 .3 0v1.6c-.2 .1-.2 .2-.9 .2c-.2 0-.5 0-.8 0h-.5v.8h.2c.4 0 2.3 0 2.9 0c.5 0 2.5 0 2.8 0m-6.1-5.9c0-1.5 .6-2.2 1.9-2.5c.1-.1 .4-.1 .5-.1V215c-1.6-.3-2.4-1-2.4-2.7m4.2 2.7h-.1v-5.3h.1c0 0 .2 0 .3 0c1.3 .3 2 1.1 2 2.6c0 1.7-.8 2.4-2.3 2.7Z" class="g9"/>
<path d="M539 220.2h-.2v.6h.1c.2-.1 1.1-.1 1.4-.1c.2 0 1.4 .1 1.5 .1h.1v-.6h-.4c-.4 0-.5 0-.6 0c-.1 0-.1-.1-.2-.2c0 0 0-.5 0-1.1c0-.6 0-1.2 0-1.3c.1-.7 .3-1.2 .6-1.5c.1-.1 .2-.1 .3-.2c.1 0 .3-.1 .3 0c-.1 .1-.1 .2-.1 .4c0 .3 .2 .6 .6 .6c.3 0 .6-.3 .6-.7c0-.3-.3-.5-.5-.6c-.2-.2-.3-.2-.6-.2c-.7 0-1 .4-1.2 .8v-.8h-.1c0 0-.4 0-.9 .1c-.5 0-.9 0-.9 0c0 0 0 .1 0 .3v.3h.2c.6 0 .7 .1 .7 .4c0 .1 0 1 0 1.8c0 .9 0 1.7 0 1.8c0 .1-.2 .1-.5 .1H539Z" class="g1"/>
<path d="M539 220.2h-.2v.6h.1c.2-.1 1.1-.1 1.4-.1c.2 0 1.4 .1 1.5 .1h.1v-.6h-.4c-.4 0-.5 0-.6 0c-.1 0-.1-.1-.2-.2c0 0 0-.5 0-1.1c0-.6 0-1.2 0-1.3c.1-.7 .3-1.2 .6-1.5c.1-.1 .2-.1 .3-.2c.1 0 .3-.1 .3 0c-.1 .1-.1 .2-.1 .4c0 .3 .2 .6 .6 .6c.3 0 .6-.3 .6-.7c0-.3-.3-.5-.5-.6c-.2-.2-.3-.2-.6-.2c-.7 0-1 .4-1.2 .8v-.8h-.1c0 0-.4 0-.9 .1c-.5 0-.9 0-.9 0c0 0 0 .1 0 .3v.3h.2c.6 0 .7 .1 .7 .4c0 .1 0 1 0 1.8c0 .9 0 1.7 0 1.8c0 .1-.2 .1-.5 .1H539Z" class="ga"/>
<path d="M548.4 217.8c0-1.5-.8-2.5-2.3-2.5q-.1 0-.2 0c-1.2 .2-2.2 1.3-2.2 2.8c0 .3 0 .6 .1 .9c.3 1 1.1 1.7 2 1.9c.2 0 .4 0 .6 0c1 0 1.6-.7 1.9-1.4c.1-.1 .1-.2 .1-.2c0-.1-.1-.1-.3-.1q-.1 0-.2 0q0 .1 0 .2c-.1 .2-.3 .5-.4 .6c-.3 .3-.4 .4-.9 .4c-.7 0-1.2-.4-1.5-.9c-.2-.3-.2-.8-.2-1.3V218h3.4c0-.1 .1-.1 .1-.2m-1-.4v.1h-2.5c0-.5 .1-.9 .3-1.1c.2-.4 .5-.6 1-.6c.1 0 .2 0 .3 0c.6 .2 .8 .8 .9 1.6Z" class="g1"/>
<path d="M548.4 217.8c0-1.5-.8-2.5-2.3-2.5q-.1 0-.2 0c-1.2 .2-2.2 1.3-2.2 2.8c0 .3 0 .6 .1 .9c.3 1 1.1 1.7 2 1.9c.2 0 .4 0 .6 0c1 0 1.6-.7 1.9-1.4c.1-.1 .1-.2 .1-.2c0-.1-.1-.1-.3-.1q-.1 0-.2 0q0 .1 0 .2c-.1 .2-.3 .5-.4 .6c-.3 .3-.4 .4-.9 .4c-.7 0-1.2-.4-1.5-.9c-.2-.3-.2-.8-.2-1.3V218h3.4c0-.1 .1-.1 .1-.2m-1-.4v.1h-2.5c0-.5 .1-.9 .3-1.1c.2-.4 .5-.6 1-.6c.1 0 .2 0 .3 0c.6 .2 .8 .8 .9 1.6Z" class="ga"/>
<path d="M550.1 217.1c.4 0 .7-.3 .7-.7c0-.2-.1-.4-.3-.5c0-.1 .7-.1 .8-.1c.6 0 1.1 .3 1.2 .8c.1 .2 .1 .4 .1 .7v.2h-.2c-.9 .1-1.5 .2-2.1 .5c-.3 .1-.5 .2-.7 .4c-.2 .3-.5 .6-.5 1.1c0 .1 .1 .3 .1 .4c.3 .6 1 1 1.8 1c.6 0 1-.2 1.4-.5c.1-.1 .2-.2 .3-.3c.1 .4 .5 .8 .9 .8c.5 0 .9-.4 1.1-.8q0-.1 0-.6V219h-.5v.5c0 .4 0 .5 0 .6c-.1 .1-.2 .2-.3 .2c-.1 0-.2-.1-.2-.2q-.1-.1-.1-1.7c0-1.6 0-1.5-.1-1.8c-.2-.7-1-1.3-2.1-1.3c-.9 0-1.6 .3-1.8 .7c-.1 .2-.1 .3-.1 .4c0 .4 .2 .7 .6 .7m2.5 1.6c0 .6 0 .7-.1 .8c-.1 .5-.6 1-1.2 1c-.6 0-1.1-.5-1.1-1c0-.2 .1-.4 .2-.6c.3-.5 1-.9 2.1-.9c0 0 .1 0 .1 0c0 0 0 .3 0 .7Z" class="g1"/>
<path d="M550.1 217.1c.4 0 .7-.3 .7-.7c0-.2-.1-.4-.3-.5c0-.1 .7-.1 .8-.1c.6 0 1.1 .3 1.2 .8c.1 .2 .1 .4 .1 .7v.2h-.2c-.9 .1-1.5 .2-2.1 .5c-.3 .1-.5 .2-.7 .4c-.2 .3-.5 .6-.5 1.1c0 .1 .1 .3 .1 .4c.3 .6 1 1 1.8 1c.6 0 1-.2 1.4-.5c.1-.1 .2-.2 .3-.3c.1 .4 .5 .8 .9 .8c.5 0 .9-.4 1.1-.8q0-.1 0-.6V219h-.5v.5c0 .4 0 .5 0 .6c-.1 .1-.2 .2-.3 .2c-.1 0-.2-.1-.2-.2q-.1-.1-.1-1.7c0-1.6 0-1.5-.1-1.8c-.2-.7-1-1.3-2.1-1.3c-.9 0-1.6 .3-1.8 .7c-.1 .2-.1 .3-.1 .4c0 .4 .2 .7 .6 .7m2.5 1.6c0 .6 0 .7-.1 .8c-.1 .5-.6 1-1.2 1c-.6 0-1.1-.5-1.1-1c0-.2 .1-.4 .2-.6c.3-.5 1-.9 2.1-.9c0 0 .1 0 .1 0c0 0 0 .3 0 .7Z" class="ga"/>
<path d="M557.1 215.8c.8 0 1.3 .4 1.3 1.1q0 .1 .1 .2h.3l.1-.1v-1.6c-.1 0-.1-.1-.2-.1h-.1c-.1 .1-.2 .2-.3 .2l-.1 .1l-.1-.1c-.3-.1-.5-.2-.9-.2c-.1 0-.3 0-.3 0c-1 .1-1.7 .6-1.7 1.6c0 .1 0 .2 0 .2c.1 .5 .4 .9 .9 1.1c.3 .1 .4 .2 1 .3c.2 0 .5 .1 .6 .1c.1 .1 .3 .2 .5 .3c.1 .2 .2 .3 .2 .6c0 .7-.5 1-1.2 1c-.5 0-.9-.2-1.2-.7c-.1-.2-.2-.5-.3-.8q0-.2-.2-.2c-.1 0-.2 0-.2 0c-.1 .1-.1 0-.1 1.1v.9q0 .1 .2 .1h.1l.1-.1q.1-.1 .1-.1l.1-.1l.1-.1c.4 .2 .7 .4 1.3 .4c.9 0 1.5-.3 1.8-.9c.1-.2 .2-.5 .2-.8c0-.1 0-.3-.1-.3c-.1-.6-.4-1-.9-1.2c-.3-.2-.4-.2-1-.3c-.6-.1-1-.2-1.2-.7c0 0 0-.1 0-.2c0-.5 .5-.7 1.1-.7Z" class="g1"/>
<path d="M557.1 215.8c.8 0 1.3 .4 1.3 1.1q0 .1 .1 .2h.3l.1-.1v-1.6c-.1 0-.1-.1-.2-.1h-.1c-.1 .1-.2 .2-.3 .2l-.1 .1l-.1-.1c-.3-.1-.5-.2-.9-.2c-.1 0-.3 0-.3 0c-1 .1-1.7 .6-1.7 1.6c0 .1 0 .2 0 .2c.1 .5 .4 .9 .9 1.1c.3 .1 .4 .2 1 .3c.2 0 .5 .1 .6 .1c.1 .1 .3 .2 .5 .3c.1 .2 .2 .3 .2 .6c0 .7-.5 1-1.2 1c-.5 0-.9-.2-1.2-.7c-.1-.2-.2-.5-.3-.8q0-.2-.2-.2c-.1 0-.2 0-.2 0c-.1 .1-.1 0-.1 1.1v.9q0 .1 .2 .1h.1l.1-.1q.1-.1 .1-.1l.1-.1l.1-.1c.4 .2 .7 .4 1.3 .4c.9 0 1.5-.3 1.8-.9c.1-.2 .2-.5 .2-.8c0-.1 0-.3-.1-.3c-.1-.6-.4-1-.9-1.2c-.3-.2-.4-.2-1-.3c-.6-.1-1-.2-1.2-.7c0 0 0-.1 0-.2c0-.5 .5-.7 1.1-.7Z" class="ga"/>
<path d="M559.9 218.2c0 1.2 .9 2.3 2.1 2.6c.2 .1 .3 .1 .6 .1c.3 0 .4 0 .7-.1c1-.2 1.8-1 2-2.1c0-.2 0-.3 0-.5c0-.8-.3-1.6-.8-2.1c-.5-.5-1.2-.8-1.9-.8c-.1 0-.2 0-.3 .1c-1.3 .1-2.4 1.3-2.4 2.8m2.9-2.4c.7 .1 1.1 .5 1.2 1.2c.1 .3 .1 .4 .1 1v.4c0 1.2-.4 2-1.5 2c-.6 0-1-.3-1.3-.7c-.2-.5-.2-.9-.2-1.7c0-.3 0-.6 0-.7c.1-.7 .4-1.1 .9-1.4c.2-.1 .4-.1 .6-.1c.1 0 .2 0 .2 0Z" class="g1"/>
<path d="M559.9 218.2c0 1.2 .9 2.3 2.1 2.6c.2 .1 .3 .1 .6 .1c.3 0 .4 0 .7-.1c1-.2 1.8-1 2-2.1c0-.2 0-.3 0-.5c0-.8-.3-1.6-.8-2.1c-.5-.5-1.2-.8-1.9-.8c-.1 0-.2 0-.3 .1c-1.3 .1-2.4 1.3-2.4 2.8m2.9-2.4c.7 .1 1.1 .5 1.2 1.2c.1 .3 .1 .4 .1 1v.4c0 1.2-.4 2-1.5 2c-.6 0-1-.3-1.3-.7c-.2-.5-.2-.9-.2-1.7c0-.3 0-.6 0-.7c.1-.7 .4-1.1 .9-1.4c.2-.1 .4-.1 .6-.1c.1 0 .2 0 .2 0Z" class="ga"/>
<path d="M567.9 220.1c0-.1 0-.7 0-1.4c0-.6 0-1.3 0-1.3c.1-.5 .3-.8 .5-1.1c.3-.3 .5-.4 1-.4c.5 0 .7 .2 .9 .7c0 .1 0 .3 0 1.8c0 .9 0 1.6 0 1.6c0 .2-.4 .2-.7 .2h-.3v.6h.1c.2-.1 1.1-.1 1.4-.1c.3 0 1.2 0 1.4 .1h.1v-.6h-.2c-.3 0-.6 0-.6 0c-.1 0-.2-.1-.2-.1c0-.1 0-.6 0-1.6c0-1 0-1.6 0-1.7c-.1-.9-.6-1.4-1.6-1.4c-.9 0-1.4 .4-1.8 .9v.1c0 0 0-.1 0-.5v-.5h-.1c0 0-.4 0-.9 .1c-.5 0-.9 0-.9 0c0 0 0 .1 0 .3v.3h.2c.5 0 .7 .1 .7 .4c0 .1 0 1 0 1.8c0 .9 0 1.7 0 1.8c-.1 .1-.3 .1-.6 .1H566v.6h.1c.1-.1 1-.1 1.3-.1c.3 0 1.2 0 1.4 .1h.1v-.6h-.4c-.3 0-.5 0-.6-.1Z" class="g1"/>
<path d="M567.9 220.1c0-.1 0-.7 0-1.4c0-.6 0-1.3 0-1.3c.1-.5 .3-.8 .5-1.1c.3-.3 .5-.4 1-.4c.5 0 .7 .2 .9 .7c0 .1 0 .3 0 1.8c0 .9 0 1.6 0 1.6c0 .2-.4 .2-.7 .2h-.3v.6h.1c.2-.1 1.1-.1 1.4-.1c.3 0 1.2 0 1.4 .1h.1v-.6h-.2c-.3 0-.6 0-.6 0c-.1 0-.2-.1-.2-.1c0-.1 0-.6 0-1.6c0-1 0-1.6 0-1.7c-.1-.9-.6-1.4-1.6-1.4c-.9 0-1.4 .4-1.8 .9v.1c0 0 0-.1 0-.5v-.5h-.1c0 0-.4 0-.9 .1c-.5 0-.9 0-.9 0c0 0 0 .1 0 .3v.3h.2c.5 0 .7 .1 .7 .4c0 .1 0 1 0 1.8c0 .9 0 1.7 0 1.8c-.1 .1-.3 .1-.6 .1H566v.6h.1c.1-.1 1-.1 1.3-.1c.3 0 1.2 0 1.4 .1h.1v-.6h-.4c-.3 0-.5 0-.6-.1Z" class="ga"/>
<g fill="#000" clip-path="url(#c0)">
<use href="#f0_23" transform="matrix(7.9 0 0 7.9 339.9 247.7)"/>
<use href="#f0_1x" transform="matrix(7.9 0 0 7.9 346.4 247.7)"/>
<use href="#f0_2g" transform="matrix(7.9 0 0 7.9 352.5 247.7)"/>
<use href="#f0_21" transform="matrix(7.9 0 0 7.9 358.2 247.7)"/>
<use href="#f0_2e" transform="matrix(7.9 0 0 7.9 523.9 247.7)"/>
<use href="#f0_21" transform="matrix(7.9 0 0 7.9 529.7 247.7)"/>
<use href="#f0_1x" transform="matrix(7.9 0 0 7.9 536.3 247.7)"/>
<use href="#f0_2f" transform="matrix(7.9 0 0 7.9 542.5 247.7)"/>
<use href="#f0_2b" transform="matrix(7.9 0 0 7.9 548.4 247.7)"/>
<use href="#f0_2a" transform="matrix(7.9 0 0 7.9 554.7 247.7)"/>
<use href="#f0_21" transform="matrix(7.9 0 0 7.9 561.1 247.7)"/>
<use href="#f0_2e" transform="matrix(7.9 0 0 7.9 567.7 247.7)"/>
</g>
<g clip-path="url(#c0)">
<text x="339.9" y="247.7" class="s0">gate </text>
<text x="523.9" y="247.7" class="s0">reasoner </text>
</g>
<path d="M324.7 133.5H366c.6 0 1.2 .1 1.7 .3c.6 .2 1.1 .6 1.5 1c.4 .4 .7 .9 1 1.5c.2 .5 .3 1.1 .3 1.7v21.1c0 .6-.1 1.2-.3 1.8c-.3 .5-.6 1-1 1.4c-.4 .5-.9 .8-1.5 1c-.5 .3-1.1 .4-1.7 .4H324.7c-.6 0-1.2-.1-1.7-.4c-.6-.2-1.1-.5-1.5-1c-.4-.4-.8-.9-1-1.4c-.2-.6-.3-1.2-.3-1.8V138c0-.6 .1-1.2 .3-1.7c.2-.6 .6-1.1 1-1.5c.4-.4 .9-.8 1.5-1c.5-.2 1.1-.3 1.7-.3Z" class="g5"/>
<path d="M324.7 133.5H366c.6 0 1.2 .1 1.7 .3c.6 .2 1.1 .6 1.5 1c.4 .4 .7 .9 1 1.5c.2 .5 .3 1.1 .3 1.7v21.1c0 .6-.1 1.2-.3 1.8c-.3 .5-.6 1-1 1.4c-.4 .5-.9 .8-1.5 1c-.5 .3-1.1 .4-1.7 .4H324.7c-.6 0-1.2-.1-1.7-.4c-.6-.2-1.1-.5-1.5-1c-.4-.4-.8-.9-1-1.4c-.2-.6-.3-1.2-.3-1.8V138c0-.6 .1-1.2 .3-1.7c.2-.6 .6-1.1 1-1.5c.4-.4 .9-.8 1.5-1c.5-.2 1.1-.3 1.7-.3Z" class="g6"/>
<g fill="#000" clip-path="url(#c0)">
<use href="#f0_1b" transform="matrix(7.9 0 0 7.9 333.2 153.1)"/>
<use href="#f0_1m" transform="matrix(7.9 0 0 7.9 340.6 153.1)"/>
<use href="#f0_25" transform="matrix(7.9 0 0 7.9 352.1 153.1)"/>
</g>
<text clip-path="url(#c0)" x="333.2" y="153.1" class="s0">KV i </text>
<path d="M393.3 133.5h41.3c.6 0 1.2 .1 1.7 .3c.6 .2 1.1 .6 1.5 1c.4 .4 .7 .9 1 1.5c.2 .5 .3 1.1 .3 1.7v21.1c0 .6-.1 1.2-.3 1.8c-.3 .5-.6 1-1 1.4c-.4 .5-.9 .8-1.5 1c-.5 .3-1.1 .4-1.7 .4H393.3c-.6 0-1.2-.1-1.7-.4c-.6-.2-1.1-.5-1.5-1c-.4-.4-.7-.9-1-1.4c-.2-.6-.3-1.2-.3-1.8V138c0-.6 .1-1.2 .3-1.7c.3-.6 .6-1.1 1-1.5c.4-.4 .9-.8 1.5-1c.5-.2 1.1-.3 1.7-.3Z" class="gi"/>
<path d="M393.3 133.5h41.3c.6 0 1.2 .1 1.7 .3c.6 .2 1.1 .6 1.5 1c.4 .4 .7 .9 1 1.5c.2 .5 .3 1.1 .3 1.7v21.1c0 .6-.1 1.2-.3 1.8c-.3 .5-.6 1-1 1.4c-.4 .5-.9 .8-1.5 1c-.5 .3-1.1 .4-1.7 .4H393.3c-.6 0-1.2-.1-1.7-.4c-.6-.2-1.1-.5-1.5-1c-.4-.4-.7-.9-1-1.4c-.2-.6-.3-1.2-.3-1.8V138c0-.6 .1-1.2 .3-1.7c.3-.6 .6-1.1 1-1.5c.4-.4 .9-.8 1.5-1c.5-.2 1.1-.3 1.7-.3Z" class="gj"/>
<g fill="#000" clip-path="url(#c0)">
<use href="#f0_1n" transform="matrix(5.9 0 0 5.9 396 145)"/>
<use href="#f0_2b" transform="matrix(5.9 0 0 5.9 405.5 145)"/>
<use href="#f0_2e" transform="matrix(5.9 0 0 5.9 410.2 145)"/>
<use href="#f0_27" transform="matrix(5.9 0 0 5.9 414.6 145)"/>
<use href="#f0_25" transform="matrix(5.9 0 0 5.9 419.5 145)"/>
<use href="#f0_2a" transform="matrix(5.9 0 0 5.9 422 145)"/>
<use href="#f0_23" transform="matrix(5.9 0 0 5.9 426.7 145)"/>
<use href="#f0_1d" transform="matrix(5.9 0 0 5.9 396.9 160.2)"/>
<use href="#f0_21" transform="matrix(5.9 0 0 5.9 404.9 160.2)"/>
<use href="#f0_29" transform="matrix(5.9 0 0 5.9 409.8 160.2)"/>
<use href="#f0_2b" transform="matrix(5.9 0 0 5.9 416.9 160.2)"/>
<use href="#f0_2e" transform="matrix(5.9 0 0 5.9 421.7 160.2)"/>
<use href="#f0_2l" transform="matrix(5.9 0 0 5.9 426 160.2)"/>
</g>
<g clip-path="url(#c0)">
<text x="396" y="145" class="s2">Working </text>
<text x="396.9" y="160.2" class="s2">Memory </text>
</g>
<path d="M374.7 148.6h9.1m-4.6-5.1l.1 10.1m64.9-5h9m-4.5-5.1l.1 10.1m-47.6 12.1v9.7" class="ge"/>
<path d="M401.2 180.7l-3.6-7.1l3.6 1.8l3.5-1.8l-3.5 7.1Z" class="g1"/>
<path d="M401.2 180.7l-3.6-7.1l3.6 1.8l3.5-1.8l-3.5 7.1Z" class="ge"/>
<path d="M352.8 259.3v8.1h-1v-8.1m1.1 16.1v8.1h-1v-8.1m1 16.1l.1 8.1h-1l-.1-8.1m1.1 16.1v.7h-1v-.7Z" class="g1"/>
<path d="M352.5 313.6l-3.5-7.1l3.5 1.8l3.5-1.8l-3.5 7.1Z" class="g1"/>
<path d="M352.5 313.6l-3.5-7.1l3.5 1.8l3.5-1.8l-3.5 7.1Z" class="ge"/>
<g fill="#000" clip-path="url(#c0)">
<use href="#f0_1l" transform="matrix(5.9 0 0 5.9 305 291)"/>
<use href="#f0_2a" transform="matrix(5.9 0 0 5.9 311.7 291)"/>
<use href="#f0_2e" transform="matrix(5.9 0 0 5.9 316.4 291)"/>
<use href="#f0_21" transform="matrix(5.9 0 0 5.9 320.8 291)"/>
<use href="#f0_28" transform="matrix(5.9 0 0 5.9 325.7 291)"/>
<use href="#f0_1x" transform="matrix(5.9 0 0 5.9 328.2 291)"/>
<use href="#f0_2g" transform="matrix(5.9 0 0 5.9 332.9 291)"/>
<use href="#f0_21" transform="matrix(5.9 0 0 5.9 337.1 291)"/>
<use href="#f0_20" transform="matrix(5.9 0 0 5.9 342.1 291)"/>
<use href="#f0_1e" transform="matrix(5.9 0 0 5.9 330 323.2)"/>
<use href="#f0_21" transform="matrix(5.9 0 0 5.9 337.2 323.2)"/>
<use href="#f0_2k" transform="matrix(5.9 0 0 5.9 342.1 323.2)"/>
<use href="#f0_2g" transform="matrix(5.9 0 0 5.9 347.5 323.2)"/>
<use href="#f0_1j" transform="matrix(5.9 0 0 5.9 354.5 323.2)"/>
<use href="#f0_2g" transform="matrix(5.9 0 0 5.9 360.7 323.2)"/>
<use href="#f0_21" transform="matrix(5.9 0 0 5.9 365 323.2)"/>
<use href="#f0_2c" transform="matrix(5.9 0 0 5.9 370 323.2)"/>
</g>
<g clip-path="url(#c0)">
<text x="305" y="291" class="s2">Unrelated </text>
<text x="330" y="323.2" class="s2">Next Step </text>
</g>
<path d="M353 259.3c0 2.9 .1 5.5 .2 8.1h-1c-.1-2.5-.2-5.2-.2-8.1h1Zm.9 16.1c.4 3 .9 5.6 1.5 7.9l-.9 .2c-.7-2.3-1.2-5-1.6-8l1-.1Zm4.7 15c1.7 2.4 3.8 3.6 6.3 3.6v1c-2.9 0-5.2-1.4-7.1-4l.8-.6Zm14.3 3.6h7.9v1.1h-7.9V294Zm15.8 0H397v1.1h-8.3V294Zm16.1 0h6.8v1.1h-6.8V294Z" class="g1"/>
<path d="M416.9 294.6l-7.1 3.5l1.8-3.5l-1.8-3.6l7.1 3.6Z" class="g1"/>
<path d="M416.9 294.6l-7.1 3.5l1.8-3.5l-1.8-3.6l7.1 3.6Z" class="ge"/>
<g fill="#000" clip-path="url(#c0)">
<use href="#f0_1i" transform="matrix(5.9 0 0 5.9 371.5 288)"/>
<use href="#f0_21" transform="matrix(5.9 0 0 5.9 377.2 288)"/>
<use href="#f0_28" transform="matrix(5.9 0 0 5.9 382.1 288)"/>
<use href="#f0_1x" transform="matrix(5.9 0 0 5.9 384.6 288)"/>
<use href="#f0_2g" transform="matrix(5.9 0 0 5.9 389.2 288)"/>
<use href="#f0_21" transform="matrix(5.9 0 0 5.9 393.5 288)"/>
<use href="#f0_20" transform="matrix(5.9 0 0 5.9 398.5 288)"/>
</g>
<text clip-path="url(#c0)" x="371.5" y="288" class="s2">Related </text>
<path clip-path="url(#c3)" d="M309.9 67.3c.1 .1 .1 .3 .2 .5c0 .3 0 .5 0 .7c0 .2 0 .5-.1 .7c-.1 .2-.2 .5-.4 .7c-.2 .2-.4 .4-.6 .5c-.2 .2-.3 .3-.4 .5c-.2 .1-.3 .2-.4 .3l-5-5c.2-.1 .5-.4 .8-.7c.3-.2 .5-.5 .7-.6c.3-.2 .5-.3 .8-.4c.2-.1 .5-.1 .8-.1c.2 0 .5 0 .7 .1c.2 .1 .4 .1 .6 .2c.4 .2 .8 .6 1.3 1.1c.4 .4 .8 1 1 1.5Zm-20.6 13c.1-.1 .3-.4 .7-.8c.4-.4 .9-.9 1.5-1.5l1.9-1.9l2.1-2.2l5.7-5.7l5 5l-5.7 5.7l-2.1 2.2c-.7 .7-1.4 1.3-1.9 1.9c-.6 .6-1.1 1.1-1.4 1.4c-.4 .4-.6 .6-.7 .7c-.2 .1-.4 .3-.6 .5c-.2 .1-.5 .3-.7 .4c-.3 .1-.6 .3-1.1 .4c-.5 .2-1 .4-1.5 .6c-.5 .1-1 .3-1.5 .4c-.5 .1-.8 .2-1 .2c-.5 .1-.8 0-1-.2c-.2-.2-.2-.5-.1-1c0-.2 .1-.6 .2-1c.2-.5 .3-1 .5-1.5c.1-.5 .2-1 .4-1.4c.1-.4 .2-.7 .3-.9c.1-.2 .3-.4 .4-.6c.1-.3 .3-.5 .6-.7Zm8.8 5h2.4v2.4h-2.4V85.3Zm4.8 0h2.4v2.4h-2.4V85.3Zm4.8 0h2.4v2.4h-2.4V85.3Z" class="gf"/>
<path d="M432.9 279.4h41.3c.6 0 1.2 .2 1.7 .4c.6 .2 1.1 .6 1.5 1c.4 .4 .8 .9 1 1.4c.2 .6 .3 1.2 .3 1.8v21.1c0 .6-.1 1.2-.3 1.8c-.2 .5-.6 1-1 1.4c-.4 .4-.9 .8-1.5 1c-.5 .2-1.1 .4-1.7 .4H432.9c-.6 0-1.1-.2-1.7-.4c-.6-.2-1-.6-1.5-1c-.4-.4-.7-.9-1-1.4c-.2-.6-.3-1.2-.3-1.8V284c0-.6 .1-1.2 .3-1.8c.3-.5 .6-1 1-1.4c.5-.4 .9-.8 1.5-1c.6-.2 1.1-.4 1.7-.4Z" class="g5"/>
<path d="M432.9 279.4h41.3c.6 0 1.2 .2 1.7 .4c.6 .2 1.1 .6 1.5 1c.4 .4 .8 .9 1 1.4c.2 .6 .3 1.2 .3 1.8v21.1c0 .6-.1 1.2-.3 1.8c-.2 .5-.6 1-1 1.4c-.4 .4-.9 .8-1.5 1c-.5 .2-1.1 .4-1.7 .4H432.9c-.6 0-1.1-.2-1.7-.4c-.6-.2-1-.6-1.5-1c-.4-.4-.7-.9-1-1.4c-.2-.6-.3-1.2-.3-1.8V284c0-.6 .1-1.2 .3-1.8c.3-.5 .6-1 1-1.4c.5-.4 .9-.8 1.5-1c.6-.2 1.1-.4 1.7-.4Z" class="g6"/>
<g fill="#000" clip-path="url(#c0)">
<use href="#f0_1b" transform="matrix(7.9 0 0 7.9 442 299.1)"/>
<use href="#f0_1m" transform="matrix(7.9 0 0 7.9 449.3 299.1)"/>
<use href="#f0_25" transform="matrix(7.9 0 0 7.9 460.8 299.1)"/>
</g>
<text clip-path="url(#c0)" x="442" y="299.1" class="s0">KV i </text>
<path d="M501.5 279.4h40.1c.6 0 1.2 .2 1.7 .4c.6 .2 1.1 .6 1.5 1c.4 .4 .7 .9 1 1.4c.2 .6 .3 1.2 .3 1.8v21.1c0 .6-.1 1.2-.3 1.8c-.3 .5-.6 1-1 1.4c-.4 .4-.9 .8-1.5 1c-.5 .2-1.1 .4-1.7 .4H501.5c-.6 0-1.1-.2-1.7-.4c-.5-.2-1-.6-1.5-1c-.4-.4-.7-.9-.9-1.4c-.3-.6-.4-1.2-.4-1.8V284c0-.6 .1-1.2 .4-1.8c.2-.5 .5-1 .9-1.4c.5-.4 1-.8 1.5-1c.6-.2 1.1-.4 1.7-.4Z" class="gi"/>
<path d="M501.5 279.4h40.1c.6 0 1.2 .2 1.7 .4c.6 .2 1.1 .6 1.5 1c.4 .4 .7 .9 1 1.4c.2 .6 .3 1.2 .3 1.8v21.1c0 .6-.1 1.2-.3 1.8c-.3 .5-.6 1-1 1.4c-.4 .4-.9 .8-1.5 1c-.5 .2-1.1 .4-1.7 .4H501.5c-.6 0-1.1-.2-1.7-.4c-.5-.2-1-.6-1.5-1c-.4-.4-.7-.9-.9-1.4c-.3-.6-.4-1.2-.4-1.8V284c0-.6 .1-1.2 .4-1.8c.2-.5 .5-1 .9-1.4c.5-.4 1-.8 1.5-1c.6-.2 1.1-.4 1.7-.4Z" class="gj"/>
<g fill="#000" clip-path="url(#c0)">
<use href="#f0_1n" transform="matrix(5.9 0 0 5.9 503.8 291)"/>
<use href="#f0_2b" transform="matrix(5.9 0 0 5.9 513.2 291)"/>
<use href="#f0_2e" transform="matrix(5.9 0 0 5.9 517.9 291)"/>
<use href="#f0_27" transform="matrix(5.9 0 0 5.9 522.3 291)"/>
<use href="#f0_25" transform="matrix(5.9 0 0 5.9 527.2 291)"/>
<use href="#f0_2a" transform="matrix(5.9 0 0 5.9 529.7 291)"/>
<use href="#f0_23" transform="matrix(5.9 0 0 5.9 534.5 291)"/>
<use href="#f0_1d" transform="matrix(5.9 0 0 5.9 504.6 306.1)"/>
<use href="#f0_21" transform="matrix(5.9 0 0 5.9 512.6 306.1)"/>
<use href="#f0_29" transform="matrix(5.9 0 0 5.9 517.6 306.1)"/>
<use href="#f0_2b" transform="matrix(5.9 0 0 5.9 524.6 306.1)"/>
<use href="#f0_2e" transform="matrix(5.9 0 0 5.9 529.4 306.1)"/>
<use href="#f0_2l" transform="matrix(5.9 0 0 5.9 533.7 306.1)"/>
</g>
<g clip-path="url(#c0)">
<text x="503.8" y="291" class="s2">Working </text>
<text x="504.6" y="306.1" class="s2">Memory </text>
</g>
<path d="M482.9 294.6H492m-4.5-5.1v10.1m64.9-5h9.1m-4.6-5.1l.1 10.1m-58.5-25.2v-9.7" class="ge"/>
<path d="M498.5 259.4l3.5 7.1l-3.5-1.8l-3.5 1.8l3.5-7.1Z" class="g1"/>
<path d="M498.5 259.4l3.5 7.1l-3.5-1.8l-3.5 1.8l3.5-7.1Z" class="ge"/>
<path d="M517 133.5h41.3c.6 0 1.1 .1 1.7 .3c.6 .2 1 .6 1.5 1c.4 .4 .7 .9 1 1.5c.2 .5 .3 1.1 .3 1.7v21.1c0 .6-.1 1.2-.3 1.8c-.3 .5-.6 1-1 1.4c-.5 .5-.9 .8-1.5 1c-.6 .3-1.1 .4-1.7 .4H517c-.6 0-1.2-.1-1.7-.4c-.6-.2-1.1-.5-1.5-1c-.4-.4-.8-.9-1-1.4c-.2-.6-.3-1.2-.3-1.8V138c0-.6 .1-1.2 .3-1.7c.2-.6 .6-1.1 1-1.5c.4-.4 .9-.8 1.5-1c.5-.2 1.1-.3 1.7-.3Z" class="gi"/>
<path d="M517 133.5h41.3c.6 0 1.1 .1 1.7 .3c.6 .2 1 .6 1.5 1c.4 .4 .7 .9 1 1.5c.2 .5 .3 1.1 .3 1.7v21.1c0 .6-.1 1.2-.3 1.8c-.3 .5-.6 1-1 1.4c-.5 .5-.9 .8-1.5 1c-.6 .3-1.1 .4-1.7 .4H517c-.6 0-1.2-.1-1.7-.4c-.6-.2-1.1-.5-1.5-1c-.4-.4-.8-.9-1-1.4c-.2-.6-.3-1.2-.3-1.8V138c0-.6 .1-1.2 .3-1.7c.2-.6 .6-1.1 1-1.5c.4-.4 .9-.8 1.5-1c.5-.2 1.1-.3 1.7-.3Z" class="gj"/>
<g fill="#000" clip-path="url(#c0)">
<use href="#f0_1l" transform="matrix(5.9 0 0 5.9 519.6 145)"/>
<use href="#f0_2c" transform="matrix(5.9 0 0 5.9 526.3 145)"/>
<use href="#f0_20" transform="matrix(5.9 0 0 5.9 531.2 145)"/>
<use href="#f0_1x" transform="matrix(5.9 0 0 5.9 536.5 145)"/>
<use href="#f0_2g" transform="matrix(5.9 0 0 5.9 541.1 145)"/>
<use href="#f0_21" transform="matrix(5.9 0 0 5.9 545.4 145)"/>
<use href="#f0_20" transform="matrix(5.9 0 0 5.9 550.3 145)"/>
<use href="#f0_1d" transform="matrix(5.9 0 0 5.9 520.7 160.2)"/>
<use href="#f0_21" transform="matrix(5.9 0 0 5.9 528.7 160.2)"/>
<use href="#f0_29" transform="matrix(5.9 0 0 5.9 533.7 160.2)"/>
<use href="#f0_2b" transform="matrix(5.9 0 0 5.9 540.7 160.2)"/>
<use href="#f0_2e" transform="matrix(5.9 0 0 5.9 545.5 160.2)"/>
<use href="#f0_2l" transform="matrix(5.9 0 0 5.9 549.9 160.2)"/>
</g>
<g clip-path="url(#c0)">
<text x="519.6" y="145" class="s2">Updated </text>
<text x="520.7" y="160.2" class="s2">Memory </text>
</g>
<path d="M536.6 181.8v-9.7" class="ge"/>
<path d="M536.6 166.8l3.6 7.1l-3.6-1.8l-3.5 1.8l3.5-7.1Z" class="g1"/>
<path d="M536.6 166.8l3.6 7.1l-3.6-1.8l-3.5 1.8l3.5-7.1Z" class="ge"/>
<path d="M274.2 112.8h3v1h-3m6-1h3v1h-3m6.1-1h3v1h-3m6-1h3v1h-3m6-1h3.1v1h-3.1m6.1-1h3v1h-3m6-1h3.1v1h-3.1m6.1-1h3v1h-3m6-1h3v1h-3m6.1-1h3v1h-3m6-1h3v1h-3m6-1h3.1v1h-3.1m6.1-1h3v1h-3m6-1h3v1h-3m6.1-1h3v1h-3m6-1h3v1h-3m6-1h3.1v1h-3.1m6.1-1h3v1h-3m6-1h3v1h-3m6.1-1h3v1h-3m6-1h3v1h-3m6-1h3.1v1H401m6.1-1h3v1h-3m6-1h3v1h-3m6.1-1h3v1h-3m6-1h3v1h-3m6-1h3.1v1h-3.1m6.1-1h3v1h-3m6-1h3v1h-3m6.1-1h3v1h-3m6-1h3v1h-3m6-1h3.1v1h-3.1m6.1-1h3v1h-3m6-1h3v1h-3m6.1-1h3v1h-3m6-1h3v1h-3m6-1h3.1v1h-3.1m6.1-1h3v1h-3m6-1h3v1h-3m6.1-1h3v1h-3m6-1h3v1h-3m6-1h3.1v1h-3.1m6.1-1h3v1h-3m6-1h3v1h-3m6.1-1h3v1h-3m6-1h3v1h-3m6-1h3.1v1H552m6.1-1h3v1h-3m6-1h3v1h-3m6.1-1h3v1h-3m6-1h3v1h-3m6-1h3.1v1h-3.1m6.1-1h3v1h-3m6-1h3.1v1h-3.1m6.1-1h3v1h-3m6-1h.2v1h-.2Z" class="g1"/>
<g fill="#000" clip-path="url(#c0)">
<use href="#f0_2d" transform="matrix(5.9 0 0 5.9 287.3 101.8)"/>
<use href="#f0_2h" transform="matrix(5.9 0 0 5.9 292 101.8)"/>
<use href="#f0_21" transform="matrix(5.9 0 0 5.9 296.7 101.8)"/>
<use href="#f0_2e" transform="matrix(5.9 0 0 5.9 301.7 101.8)"/>
<use href="#f0_2l" transform="matrix(5.9 0 0 5.9 306 101.8)"/>
</g>
<text clip-path="url(#c0)" x="287.3" y="101.8" class="s2">query </text>
<path d="M347.9 42.9V55.6" class="ge"/>
<path d="M347.9 60.9l-3.6-7.1l3.6 1.8l3.5-1.8l-3.5 7.1Z" class="g1"/>
<path d="M347.9 60.9l-3.6-7.1l3.6 1.8l3.5-1.8l-3.5 7.1Zm-36.1 18l9.4 .1" class="ge"/>
<path d="M326.5 79.1l-7.1 3.4l1.8-3.5l-1.7-3.5l7 3.6Z" class="g1"/>
<path d="M326.5 79.1l-7.1 3.4l1.8-3.5l-1.7-3.5l7 3.6Z" class="ge"/>
<path d="M166.7 108.3c0 .4-.1 .8-.3 1.2c-.1 .3-.3 .7-.6 .9c-.3 .3-.6 .5-1 .7c-.4 .1-.8 .2-1.2 .2c-.4 0-.7-.1-1.1-.2c-.4-.2-.7-.4-1-.7c-.3-.2-.5-.6-.7-.9c-.1-.4-.2-.8-.2-1.2c0-.4 .1-.8 .2-1.2c.2-.3 .4-.6 .7-.9c.3-.3 .6-.5 1-.7c.4-.1 .7-.2 1.1-.2c.4 0 .8 .1 1.2 .2c.4 .2 .7 .4 1 .7c.3 .3 .5 .6 .6 .9c.2 .4 .3 .8 .3 1.2Z" class="g1"/>
<path d="M175.7 108.3c0 .4-.1 .8-.2 1.2c-.2 .3-.4 .7-.7 .9c-.2 .3-.6 .5-.9 .7c-.4 .1-.8 .2-1.2 .2c-.4 0-.8-.1-1.2-.2c-.3-.2-.7-.4-.9-.7c-.3-.2-.5-.6-.7-.9c-.1-.4-.2-.8-.2-1.2c0-.4 .1-.8 .2-1.2c.2-.3 .4-.6 .7-.9c.2-.3 .6-.5 .9-.7c.4-.1 .8-.2 1.2-.2c.4 0 .8 .1 1.2 .2c.3 .2 .7 .4 .9 .7c.3 .3 .5 .6 .7 .9c.1 .4 .2 .8 .2 1.2Z" class="g1"/>
<path d="M184.8 108.3c0 .4-.1 .8-.3 1.2c-.1 .3-.3 .7-.6 .9c-.3 .3-.6 .5-1 .7c-.4 .1-.7 .2-1.1 .2c-.4 0-.8-.1-1.2-.2c-.4-.2-.7-.4-1-.7c-.3-.2-.5-.6-.6-.9c-.2-.4-.3-.8-.3-1.2c0-.4 .1-.8 .3-1.2c.1-.3 .3-.6 .6-.9c.3-.3 .6-.5 1-.7c.4-.1 .8-.2 1.2-.2c.4 0 .7 .1 1.1 .2c.4 .2 .7 .4 1 .7c.3 .3 .5 .6 .6 .9c.2 .4 .3 .8 .3 1.2Z" class="g1"/>
<path d="M417.3 43.2V55.9" class="ge"/>
<path d="M417.3 61.2l-3.5-7l3.5 1.7l3.6-1.7l-3.6 7Z" class="g1"/>
<path d="M417.3 61.2l-3.5-7l3.5 1.7l3.6-1.7l-3.6 7Zm108.8-18V54.6" class="ge"/>
<path d="M526.1 59.9l-3.6-7.1l3.6 1.8l3.5-1.8l-3.5 7.1Z" class="g1"/>
<path d="M526.1 59.9l-3.6-7.1l3.6 1.8l3.5-1.8l-3.5 7.1Z" class="ge"/>
<g fill="#000" clip-path="url(#c0)">
<use href="#f0_1j" transform="matrix(7.9 0 0 7.9 438.5 129.9)"/>
<use href="#f0_2g" transform="matrix(7.9 0 0 7.9 446.9 129.9)"/>
<use href="#f0_21" transform="matrix(7.9 0 0 7.9 452.6 129.9)"/>
<use href="#f0_2c" transform="matrix(7.9 0 0 7.9 459.2 129.9)"/>
<use href="#f0_25" transform="matrix(7.9 0 0 7.9 469.3 129.9)"/>
</g>
<text clip-path="url(#c0)" x="438.5" y="129.9" class="s0">Step i </text>
<path clip-path="url(#c4)" d="M588.3 284.4c.1 .1 .1 .3 .2 .5c0 .3 0 .5 0 .7c0 .2 0 .5-.1 .7c-.1 .2-.2 .4-.4 .7c-.2 .2-.4 .4-.6 .5c-.2 .2-.3 .3-.4 .4c-.2 .2-.3 .3-.4 .4l-5-5c.2-.2 .5-.4 .8-.7c.3-.2 .5-.5 .7-.6c.2-.2 .5-.3 .8-.4c.2-.1 .5-.1 .8-.1c.2 0 .5 0 .7 .1c.2 .1 .4 .1 .6 .2c.4 .2 .8 .6 1.2 1c.5 .5 .8 1 1.1 1.6Zm-20.6 13c.1-.1 .3-.4 .7-.8c.4-.4 .9-.9 1.5-1.5l1.9-1.9l2.1-2.2l5.7-5.7l5 5l-5.7 5.7l-2.1 2.2c-.7 .7-1.4 1.3-1.9 1.9c-.6 .6-1.1 1-1.4 1.4c-.4 .4-.6 .6-.7 .7c-.2 .1-.4 .3-.6 .5c-.2 .1-.5 .3-.7 .4c-.3 .1-.6 .3-1.1 .4c-.5 .2-1 .4-1.5 .6c-.5 .1-1 .3-1.5 .4c-.5 .1-.8 .2-1 .2c-.5 .1-.8 0-1-.2c-.2-.2-.2-.5-.1-1c0-.2 .1-.6 .2-1c.2-.5 .3-1 .4-1.5c.2-.5 .3-1 .5-1.4c.1-.4 .2-.7 .3-.9c.1-.2 .3-.4 .4-.7c.1-.2 .3-.4 .6-.6Zm8.8 5h2.4v2.4h-2.4v-2.4Zm4.8 0h2.4v2.4h-2.4v-2.4Zm4.8 0h2.4v2.4h-2.4v-2.4Z" class="gf"/>
<g fill="#000" clip-path="url(#c0)">
<use href="#f0_1d" transform="matrix(7.9 0 0 7.9 64.5 333.3)"/>
<use href="#f0_21" transform="matrix(7.9 0 0 7.9 75.1 333.3)"/>
<use href="#f0_29" transform="matrix(7.9 0 0 7.9 81.8 333.3)"/>
<use href="#f0_2b" transform="matrix(7.9 0 0 7.9 91.1 333.3)"/>
<use href="#f0_2e" transform="matrix(7.9 0 0 7.9 97.5 333.3)"/>
<use href="#f0_2l" transform="matrix(7.9 0 0 7.9 103.3 333.3)"/>
<use href="#f0_13" transform="matrix(7.9 0 0 7.9 113.2 333.3)"/>
<use href="#f0_2b" transform="matrix(7.9 0 0 7.9 120.5 333.3)"/>
<use href="#f0_29" transform="matrix(7.9 0 0 7.9 126.8 333.3)"/>
<use href="#f0_2c" transform="matrix(7.9 0 0 7.9 136.2 333.3)"/>
<use href="#f0_2e" transform="matrix(7.9 0 0 7.9 142.7 333.3)"/>
<use href="#f0_21" transform="matrix(7.9 0 0 7.9 148.5 333.3)"/>
<use href="#f0_2f" transform="matrix(7.9 0 0 7.9 155.1 333.3)"/>
<use href="#f0_2f" transform="matrix(7.9 0 0 7.9 161 333.3)"/>
<use href="#f0_25" transform="matrix(7.9 0 0 7.9 166.9 333.3)"/>
<use href="#f0_2b" transform="matrix(7.9 0 0 7.9 170.2 333.3)"/>
<use href="#f0_2a" transform="matrix(7.9 0 0 7.9 176.6 333.3)"/>
<use href="#f0_14" transform="matrix(7.9 0 0 7.9 415.8 333.3)"/>
<use href="#f0_2l" transform="matrix(7.9 0 0 7.9 424.5 333.3)"/>
<use href="#f0_2a" transform="matrix(7.9 0 0 7.9 430.8 333.3)"/>
<use href="#f0_1x" transform="matrix(7.9 0 0 7.9 437.2 333.3)"/>
<use href="#f0_29" transform="matrix(7.9 0 0 7.9 443.3 333.3)"/>
<use href="#f0_25" transform="matrix(7.9 0 0 7.9 452.7 333.3)"/>
<use href="#f0_1z" transform="matrix(7.9 0 0 7.9 456.1 333.3)"/>
<use href="#f0_1i" transform="matrix(7.9 0 0 7.9 465.9 333.3)"/>
<use href="#f0_21" transform="matrix(7.9 0 0 7.9 473.5 333.3)"/>
<use href="#f0_1z" transform="matrix(7.9 0 0 7.9 480.1 333.3)"/>
<use href="#f0_1x" transform="matrix(7.9 0 0 7.9 486.3 333.3)"/>
<use href="#f0_28" transform="matrix(7.9 0 0 7.9 492.5 333.3)"/>
<use href="#f0_28" transform="matrix(7.9 0 0 7.9 495.8 333.3)"/>
</g>
<g clip-path="url(#c0)">
<text x="64.5" y="333.3" class="s0">Memory Compression </text>
<text x="415.8" y="333.3" class="s0">Dynamic Recall </text>
</g>
<path d="M467.6 22.7c0 .4-.1 .8-.2 1.2c-.2 .4-.4 .7-.7 1c-.3 .2-.6 .5-1 .6c-.3 .2-.7 .3-1.1 .3c-.4 0-.8-.1-1.2-.3c-.3-.1-.7-.4-.9-.6c-.3-.3-.5-.6-.7-1c-.2-.4-.2-.8-.2-1.2c0-.4 0-.8 .2-1.1c.2-.4 .4-.7 .7-1c.2-.3 .6-.5 .9-.7c.4-.1 .8-.2 1.2-.2c.4 0 .8 .1 1.1 .2c.4 .2 .7 .4 1 .7c.3 .3 .5 .6 .7 1c.1 .3 .2 .7 .2 1.1Z" class="g1"/>
<path d="M476.7 22.7c0 .4-.1 .8-.3 1.2c-.1 .4-.3 .7-.6 1c-.3 .2-.6 .5-1 .6c-.4 .2-.7 .3-1.1 .3c-.4 0-.8-.1-1.2-.3c-.4-.1-.7-.4-1-.6c-.3-.3-.5-.6-.6-1c-.2-.4-.3-.8-.3-1.2c0-.4 .1-.8 .3-1.1c.1-.4 .3-.7 .6-1c.3-.3 .6-.5 1-.7c.4-.1 .8-.2 1.2-.2c.4 0 .7 .1 1.1 .2c.4 .2 .7 .4 1 .7c.3 .3 .5 .6 .6 1c.2 .3 .3 .7 .3 1.1Z" class="g1"/>
<path d="M485.7 22.7c0 .4 0 .8-.2 1.2c-.1 .4-.4 .7-.7 1c-.2 .2-.6 .5-.9 .6c-.4 .2-.8 .3-1.2 .3c-.4 0-.8-.1-1.1-.3c-.4-.1-.7-.4-1-.6c-.3-.3-.5-.6-.7-1c-.1-.4-.2-.8-.2-1.2c0-.4 .1-.8 .2-1.1c.2-.4 .4-.7 .7-1c.3-.3 .6-.5 1-.7c.3-.1 .7-.2 1.1-.2c.4 0 .8 .1 1.2 .2c.3 .2 .7 .4 .9 .7c.3 .3 .6 .6 .7 1c.2 .3 .2 .7 .2 1.1Z" class="g1"/>
<path d="M333.3 64.9h29.8c.5 0 1.1 .1 1.6 .3c.5 .2 1 .5 1.4 .9c.3 .4 .7 .9 .9 1.4c.2 .5 .3 1 .3 1.6V88.8c0 .6-.1 1.1-.3 1.7c-.2 .5-.6 .9-.9 1.3c-.4 .4-.9 .7-1.4 .9c-.5 .3-1.1 .4-1.6 .4H333.3c-.6 0-1.1-.1-1.7-.4c-.5-.2-.9-.5-1.3-.9c-.4-.4-.7-.8-.9-1.3c-.3-.6-.4-1.1-.4-1.7V69.1c0-.6 .1-1.1 .4-1.6c.2-.5 .5-1 .9-1.4c.4-.4 .8-.7 1.3-.9c.6-.2 1.1-.3 1.7-.3Z" class="gk"/>
<path d="M333.3 64.9h29.8c.5 0 1.1 .1 1.6 .3c.5 .2 1 .5 1.4 .9c.3 .4 .7 .9 .9 1.4c.2 .5 .3 1 .3 1.6V88.8c0 .6-.1 1.1-.3 1.7c-.2 .5-.6 .9-.9 1.3c-.4 .4-.9 .7-1.4 .9c-.5 .3-1.1 .4-1.6 .4H333.3c-.6 0-1.1-.1-1.7-.4c-.5-.2-.9-.5-1.3-.9c-.4-.4-.7-.8-.9-1.3c-.3-.6-.4-1.1-.4-1.7V69.1c0-.6 .1-1.1 .4-1.6c.2-.5 .5-1 .9-1.4c.4-.4 .8-.7 1.3-.9c.6-.2 1.1-.3 1.7-.3Z" class="gh"/>
<g fill="#000" clip-path="url(#c0)">
<use href="#f0_2f" transform="matrix(7.9 0 0 7.9 330.5 83.6)"/>
<use href="#f0_2g" transform="matrix(7.9 0 0 7.9 336.4 83.6)"/>
<use href="#f0_21" transform="matrix(7.9 0 0 7.9 342.1 83.6)"/>
<use href="#f0_2c" transform="matrix(7.9 0 0 7.9 348.7 83.6)"/>
<use href="#f0_l" transform="matrix(7.9 0 0 7.9 358.8 83.6)"/>
</g>
<text clip-path="url(#c0)" x="330.5" y="83.6" class="s0">step 1 </text>
<path d="M403.1 64.9h29.8c.5 0 1.1 .1 1.6 .3c.5 .2 1 .5 1.4 .9c.4 .4 .7 .9 .9 1.4c.2 .5 .3 1 .3 1.6V88.8c0 .6-.1 1.1-.3 1.7c-.2 .5-.5 .9-.9 1.3c-.4 .4-.9 .7-1.4 .9c-.5 .3-1.1 .4-1.6 .4H403.1c-.6 0-1.1-.1-1.6-.4c-.6-.2-1-.5-1.4-.9c-.4-.4-.7-.8-.9-1.3c-.2-.6-.3-1.1-.3-1.7V69.1c0-.6 .1-1.1 .3-1.6c.2-.5 .5-1 .9-1.4c.4-.4 .8-.7 1.4-.9c.5-.2 1-.3 1.6-.3Z" class="gk"/>
<path d="M403.1 64.9h29.8c.5 0 1.1 .1 1.6 .3c.5 .2 1 .5 1.4 .9c.4 .4 .7 .9 .9 1.4c.2 .5 .3 1 .3 1.6V88.8c0 .6-.1 1.1-.3 1.7c-.2 .5-.5 .9-.9 1.3c-.4 .4-.9 .7-1.4 .9c-.5 .3-1.1 .4-1.6 .4H403.1c-.6 0-1.1-.1-1.6-.4c-.6-.2-1-.5-1.4-.9c-.4-.4-.7-.8-.9-1.3c-.2-.6-.3-1.1-.3-1.7V69.1c0-.6 .1-1.1 .3-1.6c.2-.5 .5-1 .9-1.4c.4-.4 .8-.7 1.4-.9c.5-.2 1-.3 1.6-.3Z" class="gh"/>
<g fill="#000" clip-path="url(#c0)">
<use href="#f0_2f" transform="matrix(7.9 0 0 7.9 400 83.6)"/>
<use href="#f0_2g" transform="matrix(7.9 0 0 7.9 405.9 83.6)"/>
<use href="#f0_21" transform="matrix(7.9 0 0 7.9 411.6 83.6)"/>
<use href="#f0_2c" transform="matrix(7.9 0 0 7.9 418.2 83.6)"/>
<use href="#f0_m" transform="matrix(7.9 0 0 7.9 428.3 83.6)"/>
</g>
<text clip-path="url(#c0)" x="400" y="83.6" class="s0">step 2 </text>
<path d="M511.5 64.9h29.8c.6 0 1.1 .1 1.7 .3c.5 .2 .9 .5 1.3 .9c.4 .4 .7 .9 1 1.4c.2 .5 .3 1 .3 1.6V88.8c0 .6-.1 1.1-.3 1.7c-.3 .5-.6 .9-1 1.3c-.4 .4-.8 .7-1.3 .9c-.6 .3-1.1 .4-1.7 .4H511.5c-.5 0-1.1-.1-1.6-.4c-.5-.2-.9-.5-1.3-.9c-.4-.4-.7-.8-1-1.3c-.2-.6-.3-1.1-.3-1.7V69.1c0-.6 .1-1.1 .3-1.6c.3-.5 .6-1 1-1.4c.4-.4 .8-.7 1.3-.9c.5-.2 1.1-.3 1.6-.3Z" class="gk"/>
<path d="M511.5 64.9h29.8c.6 0 1.1 .1 1.7 .3c.5 .2 .9 .5 1.3 .9c.4 .4 .7 .9 1 1.4c.2 .5 .3 1 .3 1.6V88.8c0 .6-.1 1.1-.3 1.7c-.3 .5-.6 .9-1 1.3c-.4 .4-.8 .7-1.3 .9c-.6 .3-1.1 .4-1.7 .4H511.5c-.5 0-1.1-.1-1.6-.4c-.5-.2-.9-.5-1.3-.9c-.4-.4-.7-.8-1-1.3c-.2-.6-.3-1.1-.3-1.7V69.1c0-.6 .1-1.1 .3-1.6c.3-.5 .6-1 1-1.4c.4-.4 .8-.7 1.3-.9c.5-.2 1.1-.3 1.6-.3Z" class="gh"/>
<g fill="#000" clip-path="url(#c0)">
<use href="#f0_2f" transform="matrix(7.9 0 0 7.9 508.3 83.6)"/>
<use href="#f0_2g" transform="matrix(7.9 0 0 7.9 514.1 83.6)"/>
<use href="#f0_21" transform="matrix(7.9 0 0 7.9 519.8 83.6)"/>
<use href="#f0_2c" transform="matrix(7.9 0 0 7.9 526.4 83.6)"/>
<use href="#f0_2a" transform="matrix(7.9 0 0 7.9 536.5 83.6)"/>
</g>
<text clip-path="url(#c0)" x="508.3" y="83.6" class="s0">step n </text>
<path d="M376.5 78.9l8.3 .1" class="ge"/>
<path d="M390.1 79.1L383 82.5l1.8-3.5l-1.7-3.5l7 3.6Z" class="g1"/>
<path d="M390.1 79.1L383 82.5l1.8-3.5l-1.7-3.5l7 3.6Zm52.5-.2l7.8 .1" class="ge"/>
<path d="M455.7 79.1l-7.1 3.4l1.8-3.5l-1.7-3.5l7 3.6Z" class="g1"/>
<path d="M455.7 79.1l-7.1 3.4l1.8-3.5l-1.7-3.5l7 3.6Zm32.5-.2L496 79" class="ge"/>
<path d="M501.3 79.1l-7.1 3.4L496 79l-1.7-3.5l7 3.6Z" class="g1"/>
<path d="M501.3 79.1l-7.1 3.4L496 79l-1.7-3.5l7 3.6Zm46.9 0h9.7" class="ge"/>
<path d="M563.2 79.1l-7.1 3.6l1.8-3.6l-1.8-3.5l7.1 3.5Z" class="g1"/>
<path d="M563.2 79.1l-7.1 3.6l1.8-3.6l-1.8-3.5l7.1 3.5Z" class="ge"/>
<path d="M571.2 64.9H601c.6 0 1.1 .1 1.6 .3c.5 .2 1 .5 1.4 .9c.4 .4 .7 .9 .9 1.4c.2 .5 .3 1 .3 1.6V88.8c0 .6-.1 1.1-.3 1.7c-.2 .5-.5 .9-.9 1.3c-.4 .4-.9 .7-1.4 .9c-.5 .3-1 .4-1.6 .4H571.2c-.6 0-1.1-.1-1.6-.4c-.5-.2-1-.5-1.4-.9c-.4-.4-.7-.8-.9-1.3c-.2-.6-.3-1.1-.3-1.7V69.1c0-.6 .1-1.1 .3-1.6c.2-.5 .5-1 .9-1.4c.4-.4 .9-.7 1.4-.9c.5-.2 1-.3 1.6-.3Z" class="gl"/>
<path d="M571.2 64.9H601c.6 0 1.1 .1 1.6 .3c.5 .2 1 .5 1.4 .9c.4 .4 .7 .9 .9 1.4c.2 .5 .3 1 .3 1.6V88.8c0 .6-.1 1.1-.3 1.7c-.2 .5-.5 .9-.9 1.3c-.4 .4-.9 .7-1.4 .9c-.5 .3-1 .4-1.6 .4H571.2c-.6 0-1.1-.1-1.6-.4c-.5-.2-1-.5-1.4-.9c-.4-.4-.7-.8-.9-1.3c-.2-.6-.3-1.1-.3-1.7V69.1c0-.6 .1-1.1 .3-1.6c.2-.5 .5-1 .9-1.4c.4-.4 .9-.7 1.4-.9c.5-.2 1-.3 1.6-.3Z" class="gh"/>
<g fill="#000" clip-path="url(#c0)">
<use href="#f0_1x" transform="matrix(5.9 0 0 5.9 571.3 82.6)"/>
<use href="#f0_2a" transform="matrix(5.9 0 0 5.9 575.9 82.6)"/>
<use href="#f0_2f" transform="matrix(5.9 0 0 5.9 580.7 82.6)"/>
<use href="#f0_2j" transform="matrix(5.9 0 0 5.9 585.1 82.6)"/>
<use href="#f0_21" transform="matrix(5.9 0 0 5.9 591.3 82.6)"/>
<use href="#f0_2e" transform="matrix(5.9 0 0 5.9 596.3 82.6)"/>
</g>
<text clip-path="url(#c0)" x="571.3" y="82.6" class="s2">answer </text>
<path d="M467.6 79.1c0 .4-.1 .8-.2 1.2c-.2 .3-.4 .7-.7 .9c-.3 .3-.6 .5-1 .7c-.3 .2-.7 .2-1.1 .2c-.4 0-.8 0-1.2-.2c-.3-.2-.7-.4-.9-.7c-.3-.2-.5-.6-.7-.9c-.2-.4-.2-.8-.2-1.2c0-.4 0-.8 .2-1.1c.2-.4 .4-.7 .7-1c.2-.3 .6-.5 .9-.7c.4-.1 .8-.2 1.2-.2c.4 0 .8 .1 1.1 .2c.4 .2 .7 .4 1 .7c.3 .3 .5 .6 .7 1c.1 .3 .2 .7 .2 1.1Z" class="g1"/>
<path d="M475.9 79.1c0 .4-.1 .8-.3 1.2c-.1 .3-.3 .7-.6 .9c-.3 .3-.6 .5-1 .7c-.4 .2-.7 .2-1.1 .2c-.4 0-.8 0-1.2-.2c-.4-.2-.7-.4-1-.7c-.3-.2-.5-.6-.6-.9c-.2-.4-.3-.8-.3-1.2c0-.4 .1-.8 .3-1.1c.1-.4 .3-.7 .6-1c.3-.3 .6-.5 1-.7c.4-.1 .8-.2 1.2-.2c.4 0 .7 .1 1.1 .2c.4 .2 .7 .4 1 .7c.3 .3 .5 .6 .6 1c.2 .3 .3 .7 .3 1.1Z" class="g1"/>
<path d="M484.1 79.1c0 .4 0 .8-.2 1.2c-.2 .3-.4 .7-.7 .9c-.2 .3-.6 .5-.9 .7c-.4 .2-.8 .2-1.2 .2c-.4 0-.8 0-1.1-.2c-.4-.2-.7-.4-1-.7c-.3-.2-.5-.6-.7-.9c-.1-.4-.2-.8-.2-1.2c0-.4 .1-.8 .2-1.1c.2-.4 .4-.7 .7-1c.3-.3 .6-.5 1-.7c.3-.1 .7-.2 1.1-.2c.4 0 .8 .1 1.2 .2c.3 .2 .7 .4 .9 .7c.3 .3 .5 .6 .7 1c.2 .3 .2 .7 .2 1.1Z" class="g1"/>

</g>

<style>

@font-face {
	font-family: w_41;
	src: url("fonts/w_41.woff") format("woff");
}

</style>

</svg>
